{"glyphs":{"0":{"ha":1006,"x_min":79,"x_max":926,"o":"m 504 138 q 606 165 561 138 q 683 238 651 192 q 733 348 715 285 q 750 483 750 411 l 750 486 q 732 622 750 558 q 682 732 714 685 q 603 807 650 779 q 501 835 557 835 q 399 808 444 835 q 322 734 354 781 q 273 624 290 688 q 256 489 256 561 l 256 486 q 273 351 256 414 q 323 240 290 288 q 401 165 356 193 q 504 138 447 138 m 501 -17 q 328 22 406 -17 q 194 129 250 61 q 109 288 139 197 q 79 483 79 379 l 79 486 q 110 682 79 590 q 196 842 140 774 q 330 949 251 910 q 504 989 408 989 q 678 950 600 989 q 810 843 756 911 q 896 684 865 775 q 926 489 926 593 l 926 486 q 896 290 926 382 q 810 131 865 199 q 676 23 754 63 q 501 -17 597 -17 z "},"1":{"ha":550,"x_min":36,"x_max":417,"o":"m 247 806 l 72 757 l 36 896 l 297 979 l 417 979 l 417 0 l 247 0 l 247 806 z "},"2":{"ha":851,"x_min":68,"x_max":771,"o":"m 68 135 l 403 419 q 488 495 453 461 q 544 560 522 529 q 575 619 565 590 q 585 682 585 649 q 540 794 585 754 q 428 833 494 833 q 310 797 361 833 q 203 688 260 761 l 82 782 q 153 869 117 831 q 231 933 189 907 q 324 972 274 958 q 440 986 375 986 q 570 965 511 986 q 672 906 629 944 q 738 815 714 868 q 761 696 761 761 l 761 693 q 746 590 761 636 q 699 500 731 543 q 620 413 668 457 q 508 317 572 369 l 308 150 l 771 150 l 771 0 l 68 0 l 68 135 z "},"3":{"ha":858,"x_min":60,"x_max":772,"o":"m 432 -17 q 213 31 304 -17 q 60 154 122 79 l 179 265 q 292 170 232 203 q 435 138 353 138 q 555 178 507 138 q 603 285 603 218 l 603 288 q 542 399 603 360 q 379 438 482 438 l 300 438 l 272 544 l 535 824 l 114 824 l 114 972 l 757 972 l 757 844 l 486 567 q 593 541 542 560 q 684 490 644 522 q 748 410 724 458 q 772 293 772 361 l 772 290 q 747 167 772 224 q 678 69 722 110 q 570 6 633 29 q 432 -17 507 -17 z "},"4":{"ha":946,"x_min":50,"x_max":875,"o":"m 572 358 l 572 743 l 253 358 l 572 358 m 572 218 l 82 218 l 50 340 l 590 979 l 736 979 l 736 358 l 875 358 l 875 218 l 736 218 l 736 0 l 572 0 l 572 218 z "},"5":{"ha":864,"x_min":65,"x_max":782,"o":"m 422 -17 q 222 24 310 -17 q 65 132 135 65 l 171 256 q 291 170 229 201 q 421 139 353 139 q 561 185 508 139 q 614 307 614 231 l 614 310 q 558 428 614 385 q 413 471 501 471 q 315 458 360 471 q 233 428 271 446 l 131 496 l 158 972 l 739 972 l 739 821 l 306 821 l 290 593 q 360 613 325 606 q 444 621 396 621 q 577 602 515 621 q 684 545 639 583 q 756 449 729 507 q 782 315 782 392 l 782 313 q 756 177 782 238 q 683 74 731 117 q 569 7 636 31 q 422 -17 503 -17 z "},"6":{"ha":911,"x_min":79,"x_max":829,"o":"m 464 131 q 546 144 510 131 q 607 181 582 157 q 645 238 632 206 q 658 307 658 269 l 658 310 q 605 431 658 383 q 460 479 551 479 q 378 465 414 479 q 316 428 342 451 q 276 374 290 406 q 263 308 263 343 l 263 306 q 277 236 263 268 q 317 181 292 204 q 381 144 343 157 q 464 131 418 131 m 468 -17 q 312 10 378 -17 q 197 85 246 36 q 148 147 169 113 q 111 225 126 181 q 88 326 96 269 q 79 457 79 383 l 79 460 q 106 667 79 571 q 184 835 132 764 q 315 948 236 907 q 496 989 393 989 q 660 960 590 989 q 793 881 729 932 l 701 749 q 602 811 650 789 q 490 833 554 833 q 394 810 436 833 q 322 746 351 788 q 276 648 293 704 q 257 525 260 592 q 299 561 276 543 q 349 592 321 579 q 412 614 378 606 q 489 622 446 622 q 622 602 560 622 q 730 542 683 582 q 803 446 776 503 q 829 317 829 389 l 829 314 q 801 181 829 242 q 725 76 774 119 q 610 8 676 32 q 468 -17 544 -17 z "},"7":{"ha":846,"x_min":94,"x_max":778,"o":"m 583 822 l 94 822 l 94 972 l 778 972 l 778 843 l 339 0 l 147 0 l 583 822 z "},"8":{"ha":875,"x_min":67,"x_max":808,"o":"m 438 129 q 588 172 533 129 q 642 275 642 214 l 642 278 q 626 338 642 311 q 583 385 610 365 q 518 415 556 404 q 438 425 481 425 q 357 415 394 425 q 292 385 319 404 q 249 338 265 365 q 233 278 233 311 l 233 275 q 288 172 233 215 q 438 129 342 129 m 438 561 q 562 601 513 561 q 611 704 611 642 l 611 707 q 564 803 611 764 q 438 843 517 843 q 311 803 358 843 q 264 708 264 764 l 264 706 q 313 601 264 642 q 438 561 363 561 m 438 -14 q 290 6 358 -14 q 172 63 222 26 q 94 150 122 99 q 67 264 67 201 l 67 267 q 113 413 67 356 q 242 504 158 469 q 140 588 179 536 q 100 721 100 639 l 100 724 q 126 827 100 779 q 196 910 151 875 q 302 966 240 946 q 438 986 364 986 q 572 966 510 986 q 679 911 635 946 q 749 828 724 876 q 775 724 775 779 l 775 721 q 735 588 775 639 q 633 504 696 536 q 760 413 713 468 q 808 271 808 358 l 808 268 q 781 151 808 203 q 703 62 753 99 q 585 6 653 25 q 438 -14 517 -14 z "},"9":{"ha":911,"x_min":82,"x_max":832,"o":"m 451 485 q 534 499 497 485 q 597 537 571 513 q 635 592 622 561 q 649 660 649 624 l 649 663 q 594 790 649 739 q 446 842 539 842 q 365 828 400 842 q 304 789 329 814 q 266 731 279 764 q 253 661 253 699 l 253 658 q 306 533 253 582 q 451 485 360 485 m 415 -17 q 240 16 314 -17 q 104 100 167 49 l 197 231 q 305 161 253 183 q 419 139 357 139 q 516 161 474 139 q 588 224 558 183 q 635 322 618 265 q 654 444 651 378 q 562 371 618 400 q 426 342 506 342 q 285 363 349 342 q 177 425 222 385 q 107 522 132 465 q 82 650 82 579 l 82 653 q 108 785 82 724 q 183 892 135 847 q 297 963 231 938 q 444 989 364 989 q 599 963 536 989 q 714 886 663 938 q 800 745 768 832 q 832 515 832 658 l 832 513 q 803 298 832 396 q 722 131 775 200 q 590 22 668 61 q 415 -17 513 -17 z "}," ":{"ha":417,"x_min":0,"x_max":0,"o":""},"!":{"ha":419,"x_min":111,"x_max":308,"o":"m 118 190 l 303 190 l 303 0 l 118 0 l 118 190 m 111 924 l 111 972 l 308 972 l 308 924 l 257 307 l 164 307 l 111 924 z "},"\"":{"ha":676,"x_min":83,"x_max":611,"o":"m 115 972 l 306 972 l 306 965 l 171 557 l 83 557 l 115 972 m 421 972 l 611 972 l 611 965 l 475 557 l 388 557 l 421 972 z "},"#":{"ha":972,"x_min":54,"x_max":917,"o":"m 579 368 l 621 610 l 393 610 l 351 368 l 579 368 m 179 224 l 54 224 l 54 368 l 204 368 l 244 610 l 106 610 l 106 754 l 269 754 l 307 972 l 456 972 l 418 754 l 646 754 l 682 972 l 831 972 l 793 754 l 917 754 l 917 610 l 768 610 l 728 368 l 867 368 l 867 224 l 703 224 l 664 0 l 515 0 l 554 224 l 326 224 l 289 0 l 140 0 l 179 224 z "},"$":{"ha":892,"x_min":68,"x_max":813,"o":"m 511 142 q 613 178 578 147 q 649 260 649 210 l 649 263 q 620 339 649 308 q 511 393 592 369 l 511 142 m 401 832 q 301 794 335 826 q 268 717 268 763 l 268 714 q 294 641 268 671 q 401 588 321 611 l 401 832 m 396 3 q 222 49 304 14 q 68 140 139 83 l 157 267 q 275 188 217 218 q 401 147 333 158 l 401 419 q 176 523 249 458 q 104 704 104 588 l 104 707 q 125 809 104 763 q 185 890 146 856 q 277 946 224 925 q 396 972 331 967 l 396 1053 l 517 1053 l 517 969 q 656 933 593 960 q 778 864 719 907 l 700 733 q 511 822 610 801 l 511 558 q 741 451 669 518 q 813 272 813 383 l 813 269 q 791 166 813 213 q 731 85 769 119 q 638 28 692 50 q 517 1 583 7 l 517 -136 l 396 -136 l 396 3 z "},"%":{"ha":1179,"x_min":67,"x_max":1113,"o":"m 885 96 q 961 137 933 96 q 989 235 989 178 l 989 238 q 959 338 989 296 q 882 379 929 379 q 806 338 833 379 q 778 240 778 297 l 778 238 q 808 137 778 178 q 885 96 838 96 m 297 593 q 374 634 346 593 q 401 732 401 675 l 401 735 q 372 835 401 793 q 294 876 342 876 q 218 835 246 876 q 190 738 190 794 l 190 735 q 220 634 190 675 q 297 593 250 593 m 882 -11 q 789 8 831 -11 q 717 62 747 28 q 671 140 688 96 q 654 235 654 185 l 654 238 q 671 333 654 288 q 718 412 688 378 q 791 466 749 446 q 885 486 833 486 q 978 467 936 486 q 1049 413 1019 447 q 1096 335 1079 379 q 1113 240 1113 290 l 1113 238 q 1096 142 1113 188 q 1049 63 1079 97 q 976 9 1018 29 q 882 -11 933 -11 m 876 972 l 1014 972 l 303 0 l 165 0 l 876 972 m 294 486 q 201 506 243 486 q 130 559 160 525 q 83 638 100 593 q 67 732 67 682 l 67 735 q 83 830 67 785 q 131 909 100 875 q 203 963 161 943 q 297 983 246 983 q 390 964 349 983 q 462 910 432 944 q 508 832 492 876 q 525 738 525 788 l 525 735 q 508 640 525 685 q 461 560 492 594 q 388 506 431 526 q 294 486 346 486 z "},"&":{"ha":967,"x_min":54,"x_max":925,"o":"m 389 128 q 485 150 439 128 q 572 213 531 172 l 356 433 q 257 362 288 404 q 226 272 226 319 l 226 269 q 272 167 226 207 q 389 128 318 128 m 414 590 q 528 653 489 618 q 567 742 567 689 l 567 744 q 535 824 567 793 q 456 854 504 854 q 372 822 403 854 q 340 738 340 789 l 340 735 q 357 667 340 699 q 414 590 374 635 m 669 113 q 533 20 607 54 q 371 -14 460 -14 q 245 6 303 -14 q 145 62 188 25 q 78 150 103 99 q 54 264 54 201 l 54 267 q 108 428 54 361 q 261 539 161 496 q 200 640 219 592 q 181 742 181 689 l 181 744 q 200 838 181 793 q 256 915 219 882 q 343 969 292 949 q 460 989 394 989 q 565 971 518 989 q 647 921 613 953 q 699 846 681 889 q 718 754 718 803 l 718 751 q 660 595 718 656 q 504 499 601 535 l 671 329 q 725 418 699 371 q 775 517 751 465 l 904 449 q 842 334 875 390 q 772 226 810 278 l 925 71 l 799 -19 l 669 113 z "},"'":{"ha":374,"x_min":83,"x_max":308,"o":"m 115 972 l 308 972 l 308 965 l 172 557 l 83 557 l 115 972 z "},"(":{"ha":611,"x_min":88,"x_max":546,"o":"m 472 -196 q 185 54 282 -92 q 88 399 88 200 q 185 743 88 597 q 472 993 282 889 l 546 881 q 417 779 472 832 q 326 668 363 726 q 273 543 290 610 q 256 399 256 476 q 326 128 256 243 q 546 -83 397 14 l 472 -196 z "},")":{"ha":611,"x_min":67,"x_max":525,"o":"m 67 -83 q 195 18 140 -35 q 286 129 250 71 q 340 254 322 188 q 357 399 357 321 q 285 668 357 554 q 67 881 214 782 l 140 993 q 427 742 329 889 q 525 399 525 596 q 427 55 525 201 q 140 -196 329 -92 l 67 -83 z "},"*":{"ha":597,"x_min":81,"x_max":517,"o":"m 269 700 l 131 599 l 81 683 l 239 753 l 81 822 l 131 907 l 269 806 l 250 975 l 347 975 l 328 806 l 467 907 l 517 822 l 358 753 l 517 683 l 467 599 l 328 700 l 347 531 l 250 531 l 269 700 z "},"+":{"ha":889,"x_min":99,"x_max":790,"o":"m 365 413 l 99 413 l 99 565 l 365 565 l 365 831 l 524 831 l 524 565 l 790 565 l 790 413 l 524 413 l 524 147 l 365 147 l 365 413 z "},",":{"ha":374,"x_min":47,"x_max":279,"o":"m 47 -131 q 165 0 175 -106 l 94 0 l 94 190 l 279 190 l 279 29 q 225 -140 279 -87 q 65 -201 171 -193 l 47 -131 z "},"-":{"ha":567,"x_min":78,"x_max":489,"o":"m 78 508 l 489 508 l 489 343 l 78 343 l 78 508 z "},".":{"ha":374,"x_min":94,"x_max":279,"o":"m 94 190 l 279 190 l 279 0 l 94 0 l 94 190 z "},"/":{"ha":724,"x_min":-35,"x_max":739,"o":"m 593 1108 l 739 1108 l 111 -178 l -35 -178 l 593 1108 z "},":":{"ha":388,"x_min":101,"x_max":286,"o":"m 101 190 l 286 190 l 286 0 l 101 0 l 101 190 m 101 733 l 286 733 l 286 543 l 101 543 l 101 733 z "},";":{"ha":388,"x_min":54,"x_max":286,"o":"m 54 -131 q 172 0 182 -106 l 101 0 l 101 190 l 286 190 l 286 29 q 232 -140 286 -87 q 72 -201 178 -193 l 54 -131 m 101 733 l 286 733 l 286 543 l 101 543 l 101 733 z "},"<":{"ha":889,"x_min":97,"x_max":760,"o":"m 97 414 l 97 564 l 760 871 l 760 711 l 264 490 l 760 268 l 760 107 l 97 414 z "},"=":{"ha":889,"x_min":119,"x_max":769,"o":"m 119 393 l 769 393 l 769 238 l 119 238 l 119 393 m 119 740 l 769 740 l 769 585 l 119 585 l 119 740 z "},">":{"ha":889,"x_min":129,"x_max":792,"o":"m 129 267 l 625 488 l 129 710 l 129 871 l 792 564 l 792 414 l 129 107 l 129 267 z "},"?":{"ha":751,"x_min":33,"x_max":693,"o":"m 247 190 l 433 190 l 433 0 l 247 0 l 247 190 m 260 532 l 267 539 q 462 585 400 544 q 524 694 524 625 l 524 697 q 481 792 524 756 q 364 829 439 829 q 242 801 297 829 q 138 719 188 772 l 33 831 q 175 942 94 900 q 368 985 256 985 q 501 965 440 985 q 603 909 561 946 q 669 820 646 872 q 693 703 693 768 l 693 700 q 671 586 693 635 q 611 504 649 538 q 523 450 574 471 q 414 419 472 429 l 400 307 l 288 307 l 260 532 z "},"@":{"ha":1361,"x_min":74,"x_max":1288,"o":"m 635 214 q 707 231 672 214 q 768 278 742 249 q 810 348 794 308 q 826 433 826 388 q 785 542 826 500 q 681 583 743 583 q 608 567 643 583 q 546 521 572 550 q 503 451 519 492 q 488 364 488 411 q 528 253 488 292 q 635 214 569 214 m 693 -225 q 447 -177 560 -225 q 250 -47 333 -129 q 120 146 167 36 q 74 381 74 256 q 121 616 74 506 q 250 809 168 726 q 443 940 332 892 q 682 989 554 989 q 920 943 810 989 q 1113 822 1031 897 q 1241 647 1194 746 q 1288 439 1288 547 q 1265 286 1288 351 q 1206 178 1243 221 q 1121 115 1169 136 q 1018 93 1072 93 q 886 122 936 93 q 813 190 836 151 q 723 122 775 151 q 597 93 671 93 q 499 112 544 93 q 419 165 454 131 q 365 247 385 199 q 346 356 346 296 q 372 492 346 429 q 443 603 399 556 q 544 676 488 650 q 661 703 600 703 q 783 672 736 703 q 857 600 829 642 l 874 683 l 1008 663 l 947 313 q 942 278 944 293 q 940 253 940 263 q 969 181 940 208 q 1049 154 997 154 q 1119 172 1086 154 q 1178 226 1153 190 q 1217 315 1203 261 q 1232 439 1232 368 q 1190 624 1232 535 q 1075 783 1149 714 q 901 894 1001 853 q 682 936 800 936 q 462 892 563 936 q 287 773 361 849 q 171 596 213 697 q 129 381 129 494 q 171 165 129 265 q 288 -11 213 64 q 466 -129 363 -86 q 693 -172 569 -172 q 876 -149 796 -172 q 1036 -79 957 -125 l 1061 -121 q 891 -197 981 -169 q 693 -225 801 -225 z "},"A":{"ha":1097,"x_min":42,"x_max":1056,"o":"m 714 386 l 546 775 l 379 386 l 714 386 m 469 979 l 628 979 l 1056 0 l 875 0 l 776 235 l 317 235 l 217 0 l 42 0 l 469 979 z "},"B":{"ha":1003,"x_min":125,"x_max":935,"o":"m 576 151 q 714 185 664 151 q 764 285 764 218 l 764 288 q 715 384 764 350 q 564 418 665 418 l 293 418 l 293 151 l 576 151 m 526 563 q 660 595 610 563 q 710 694 710 628 l 710 697 q 666 788 710 756 q 539 821 622 821 l 293 821 l 293 563 l 526 563 m 125 972 l 561 972 q 815 886 729 972 q 881 725 881 821 l 881 722 q 869 644 881 678 q 838 584 857 610 q 794 539 819 558 q 742 506 768 519 q 820 470 785 490 q 881 422 856 450 q 921 357 907 394 q 935 269 935 319 l 935 267 q 909 151 935 201 q 836 68 883 101 q 722 17 789 35 q 575 0 656 0 l 125 0 l 125 972 z "},"C":{"ha":1025,"x_min":82,"x_max":971,"o":"m 576 -17 q 379 22 469 -17 q 223 128 289 61 q 119 288 157 196 q 82 483 82 379 l 82 486 q 119 681 82 590 q 222 841 156 772 q 381 949 289 910 q 583 989 472 989 q 705 978 650 989 q 806 947 760 967 q 890 899 851 926 q 964 838 929 871 l 854 711 q 731 799 796 765 q 582 832 665 832 q 453 805 513 832 q 351 731 394 778 q 285 622 308 685 q 261 489 261 560 l 261 486 q 285 352 261 415 q 351 242 308 289 q 453 167 394 194 q 582 140 513 140 q 735 174 671 140 q 861 267 799 208 l 971 156 q 892 84 933 115 q 804 30 851 53 q 701 -5 757 7 q 576 -17 644 -17 z "},"D":{"ha":1086,"x_min":125,"x_max":1004,"o":"m 488 156 q 626 180 564 156 q 733 248 689 204 q 801 352 776 292 q 825 483 825 413 l 825 486 q 801 618 825 557 q 733 723 776 679 q 626 792 689 767 q 488 817 564 817 l 296 817 l 296 156 l 488 156 m 125 972 l 488 972 q 697 935 601 972 q 860 833 792 899 q 967 680 929 768 q 1004 489 1004 592 l 1004 486 q 967 294 1004 383 q 860 140 929 206 q 697 38 792 75 q 488 0 601 0 l 125 0 l 125 972 z "},"E":{"ha":931,"x_min":125,"x_max":853,"o":"m 125 972 l 846 972 l 846 819 l 296 819 l 296 567 l 783 567 l 783 414 l 296 414 l 296 153 l 853 153 l 853 0 l 125 0 l 125 972 z "},"F":{"ha":911,"x_min":125,"x_max":849,"o":"m 125 972 l 849 972 l 849 817 l 296 817 l 296 551 l 786 551 l 786 396 l 296 396 l 296 0 l 125 0 l 125 972 z "},"G":{"ha":1089,"x_min":82,"x_max":992,"o":"m 586 -17 q 379 22 472 -17 q 220 127 286 60 q 118 285 154 194 q 82 483 82 376 l 82 486 q 119 679 82 588 q 222 840 156 771 q 381 949 289 908 q 583 989 474 989 q 699 980 647 989 q 796 954 751 971 q 880 913 840 938 q 957 857 919 889 l 849 728 q 792 771 821 751 q 731 803 763 790 q 660 824 699 817 q 576 832 622 832 q 452 804 510 832 q 352 730 394 776 q 285 621 310 683 q 261 489 261 558 l 261 486 q 285 347 261 411 q 352 238 308 283 q 456 165 396 192 q 592 139 517 139 q 722 159 661 139 q 826 213 782 179 l 826 394 l 578 394 l 578 543 l 992 543 l 992 135 q 912 76 956 104 q 817 28 868 49 q 708 -5 767 7 q 586 -17 650 -17 z "},"H":{"ha":1056,"x_min":125,"x_max":931,"o":"m 125 972 l 296 972 l 296 568 l 760 568 l 760 972 l 931 972 l 931 0 l 760 0 l 760 410 l 296 410 l 296 0 l 125 0 l 125 972 z "},"I":{"ha":440,"x_min":135,"x_max":306,"o":"m 135 972 l 306 972 l 306 0 l 135 0 l 135 972 z "},"J":{"ha":776,"x_min":29,"x_max":667,"o":"m 340 -14 q 153 31 228 -14 q 29 143 78 76 l 142 258 q 230 174 185 204 q 338 144 275 144 q 449 191 407 144 q 492 335 492 238 l 492 972 l 667 972 l 667 331 q 643 179 667 243 q 576 72 619 115 q 474 8 533 29 q 340 -14 414 -14 z "},"K":{"ha":1007,"x_min":125,"x_max":986,"o":"m 125 972 l 296 972 l 296 483 l 758 972 l 968 972 l 564 554 l 986 0 l 779 0 l 447 438 l 296 282 l 296 0 l 125 0 l 125 972 z "},"L":{"ha":860,"x_min":125,"x_max":807,"o":"m 125 972 l 296 972 l 296 156 l 807 156 l 807 0 l 125 0 l 125 972 z "},"M":{"ha":1206,"x_min":125,"x_max":1081,"o":"m 125 972 l 307 972 l 603 513 l 899 972 l 1081 972 l 1081 0 l 910 0 l 910 697 l 603 239 l 597 239 l 293 694 l 293 0 l 125 0 l 125 972 z "},"N":{"ha":1097,"x_min":125,"x_max":972,"o":"m 125 972 l 283 972 l 804 300 l 804 972 l 972 972 l 972 0 l 829 0 l 293 692 l 293 0 l 125 0 l 125 972 z "},"O":{"ha":1181,"x_min":82,"x_max":1099,"o":"m 592 140 q 724 167 664 140 q 828 241 785 194 q 895 350 871 288 q 919 483 919 413 l 919 486 q 895 620 919 557 q 827 730 871 683 q 722 804 783 776 q 589 832 661 832 q 456 805 517 832 q 353 731 396 778 q 285 622 310 685 q 261 489 261 560 l 261 486 q 285 352 261 415 q 353 242 310 289 q 458 168 397 196 q 592 140 519 140 m 589 -17 q 383 23 476 -17 q 224 131 290 63 q 119 290 157 199 q 82 483 82 381 l 82 486 q 119 680 82 589 q 225 840 157 771 q 386 949 293 908 q 592 989 479 989 q 797 949 704 989 q 957 842 890 910 q 1061 683 1024 774 q 1099 489 1099 592 l 1099 486 q 1061 292 1099 383 q 956 133 1024 201 q 794 24 888 64 q 589 -17 701 -17 z "},"P":{"ha":928,"x_min":125,"x_max":878,"o":"m 494 467 q 648 515 592 467 q 704 640 704 564 l 704 643 q 647 773 704 729 q 494 817 590 817 l 296 817 l 296 467 l 494 467 m 125 972 l 508 972 q 662 949 593 972 q 778 883 731 926 q 852 781 826 840 q 878 647 878 721 l 878 644 q 847 501 878 563 q 764 397 817 439 q 640 334 711 356 q 489 313 569 313 l 296 313 l 296 0 l 125 0 l 125 972 z "},"Q":{"ha":1181,"x_min":82,"x_max":1111,"o":"m 592 140 q 682 153 640 140 q 758 188 724 165 l 592 329 l 701 454 l 869 301 q 919 483 919 378 l 919 486 q 895 620 919 557 q 827 730 871 683 q 722 804 783 776 q 589 832 661 832 q 456 805 517 832 q 353 731 396 778 q 285 622 310 685 q 261 489 261 560 l 261 486 q 285 352 261 415 q 353 242 310 289 q 458 168 397 196 q 592 140 519 140 m 885 75 q 749 7 822 31 q 589 -17 675 -17 q 383 23 476 -17 q 224 131 290 63 q 119 290 157 199 q 82 483 82 381 l 82 486 q 119 680 82 589 q 225 840 157 771 q 386 949 293 908 q 592 989 479 989 q 797 949 704 989 q 957 842 890 910 q 1061 683 1024 774 q 1099 489 1099 592 l 1099 486 q 1074 327 1099 403 q 1000 188 1049 251 l 1111 93 l 1001 -29 l 885 75 z "},"R":{"ha":1004,"x_min":125,"x_max":950,"o":"m 546 490 q 692 534 638 490 q 746 653 746 578 l 746 656 q 693 776 746 735 q 544 817 640 817 l 296 817 l 296 490 l 546 490 m 125 972 l 558 972 q 721 947 650 972 q 839 875 792 921 q 899 782 878 835 q 919 665 919 729 l 919 663 q 902 555 919 603 q 854 470 885 507 q 781 408 824 433 q 688 368 739 382 l 950 0 l 749 0 l 510 339 l 507 339 l 296 339 l 296 0 l 125 0 l 125 972 z "},"S":{"ha":889,"x_min":60,"x_max":813,"o":"m 465 -14 q 250 24 353 -14 q 60 142 147 63 l 163 264 q 306 170 233 203 q 469 138 378 138 q 595 171 549 138 q 642 260 642 204 l 642 263 q 633 309 642 289 q 599 347 624 329 q 533 381 575 365 q 422 411 490 396 q 284 452 344 429 q 183 508 224 475 q 120 588 142 540 q 99 701 99 635 l 99 704 q 124 819 99 767 q 192 908 149 871 q 297 965 236 944 q 431 986 358 986 q 623 955 538 986 q 783 864 708 924 l 692 735 q 560 809 625 783 q 428 835 494 835 q 311 801 353 835 q 269 719 269 768 l 269 717 q 279 667 269 689 q 315 628 289 646 q 385 596 340 611 q 500 564 431 581 q 635 521 576 544 q 733 463 694 497 q 792 384 772 429 q 813 279 813 339 l 813 276 q 787 154 813 208 q 715 63 761 100 q 606 6 669 25 q 465 -14 542 -14 z "},"T":{"ha":900,"x_min":56,"x_max":844,"o":"m 364 814 l 56 814 l 56 972 l 844 972 l 844 814 l 536 814 l 536 0 l 364 0 l 364 814 z "},"U":{"ha":1051,"x_min":110,"x_max":942,"o":"m 524 -15 q 353 12 429 -15 q 222 93 276 39 q 139 227 168 147 q 110 413 110 307 l 110 972 l 281 972 l 281 419 q 346 213 281 283 q 526 142 411 142 q 706 210 640 142 q 771 413 771 278 l 771 972 l 942 972 l 942 421 q 912 231 942 313 q 828 94 882 149 q 697 12 774 39 q 524 -15 619 -15 z "},"V":{"ha":1042,"x_min":42,"x_max":1000,"o":"m 42 972 l 231 972 l 524 225 l 815 972 l 1000 972 l 596 -7 l 446 -7 l 42 972 z "},"W":{"ha":1550,"x_min":50,"x_max":1500,"o":"m 50 972 l 235 972 l 467 251 l 706 975 l 850 975 l 1089 251 l 1321 972 l 1500 972 l 1161 -7 l 1014 -7 l 775 692 l 536 -7 l 389 -7 l 50 972 z "},"X":{"ha":1013,"x_min":51,"x_max":961,"o":"m 406 494 l 65 972 l 267 972 l 508 624 l 751 972 l 947 972 l 608 497 l 961 0 l 760 0 l 504 368 l 247 0 l 51 0 l 406 494 z "},"Y":{"ha":994,"x_min":25,"x_max":969,"o":"m 411 383 l 25 972 l 226 972 l 499 542 l 774 972 l 969 972 l 583 388 l 583 0 l 411 0 l 411 383 z "},"Z":{"ha":975,"x_min":90,"x_max":886,"o":"m 90 126 l 664 821 l 108 821 l 108 972 l 886 972 l 886 846 l 313 151 l 886 151 l 886 0 l 90 0 l 90 126 z "},"[":{"ha":631,"x_min":122,"x_max":549,"o":"m 122 972 l 549 972 l 549 840 l 282 840 l 282 -49 l 549 -49 l 549 -181 l 122 -181 l 122 972 z "},"\\":{"ha":724,"x_min":-15,"x_max":758,"o":"m -15 1108 l 131 1108 l 758 -178 l 613 -178 l -15 1108 z "},"]":{"ha":631,"x_min":82,"x_max":510,"o":"m 82 -49 l 349 -49 l 349 840 l 82 840 l 82 972 l 510 972 l 510 -181 l 82 -181 l 82 -49 z "},"^":{"ha":694,"x_min":78,"x_max":617,"o":"m 288 974 l 407 974 l 617 685 l 488 685 l 346 868 l 204 685 l 78 685 l 288 974 z "},"_":{"ha":833,"x_min":-3,"x_max":836,"o":"m -3 -92 l 836 -92 l 836 -222 l -3 -222 l -3 -92 z "},"`":{"ha":694,"x_min":172,"x_max":472,"o":"m 172 986 l 325 1054 l 472 826 l 342 826 l 172 986 z "},"a":{"ha":815,"x_min":56,"x_max":721,"o":"m 558 307 q 483 328 526 319 q 390 336 439 336 q 267 306 311 336 q 222 222 222 275 l 222 219 q 263 139 222 167 q 364 111 304 111 q 441 122 406 111 q 503 153 476 133 q 544 202 529 174 q 558 265 558 231 l 558 307 m 554 0 l 554 90 q 458 15 517 46 q 317 -15 400 -15 q 217 -1 264 -15 q 134 42 169 14 q 77 113 99 71 q 56 211 56 156 l 56 214 q 78 320 56 275 q 140 395 100 365 q 234 440 179 425 q 353 454 289 454 q 466 446 419 454 q 556 424 513 438 l 556 438 q 509 554 556 514 q 375 594 463 594 q 264 582 313 594 q 165 549 215 569 l 119 683 q 244 728 181 711 q 399 744 308 744 q 642 663 563 744 q 721 435 721 582 l 721 0 l 554 0 z "},"b":{"ha":931,"x_min":106,"x_max":864,"o":"m 483 131 q 565 147 526 131 q 631 194 603 164 q 676 267 660 224 q 693 365 693 311 l 693 368 q 676 465 693 421 q 631 539 660 508 q 565 586 603 569 q 483 603 526 603 q 401 586 440 603 q 333 538 363 569 q 287 464 304 507 q 269 368 269 421 l 269 365 q 287 269 269 313 q 333 194 304 225 q 401 147 363 164 q 483 131 440 131 m 522 -15 q 372 24 432 -15 q 274 114 313 63 l 274 0 l 106 0 l 106 1014 l 274 1014 l 274 611 q 374 709 314 669 q 522 749 433 749 q 649 724 588 749 q 758 650 710 699 q 835 531 806 601 q 864 368 864 460 l 864 365 q 835 203 864 274 q 759 83 807 132 q 649 10 711 35 q 522 -15 588 -15 z "},"c":{"ha":793,"x_min":65,"x_max":744,"o":"m 444 -17 q 293 13 363 -17 q 173 94 224 43 q 94 215 122 146 q 65 363 65 285 l 65 365 q 94 513 65 443 q 173 635 122 583 q 294 718 224 688 q 446 749 364 749 q 619 714 550 749 q 739 622 688 679 l 635 510 q 552 576 596 550 q 444 601 508 601 q 360 583 399 601 q 293 533 321 564 q 249 458 265 501 q 233 368 233 415 l 233 365 q 249 274 233 317 q 294 199 265 231 q 364 148 324 167 q 453 129 404 129 q 558 155 513 129 q 643 221 603 181 l 744 121 q 621 22 690 60 q 444 -17 551 -17 z "},"d":{"ha":931,"x_min":68,"x_max":826,"o":"m 449 131 q 529 147 490 131 q 597 195 568 164 q 644 269 626 226 q 661 365 661 313 l 661 368 q 644 465 661 421 q 597 539 626 508 q 529 586 568 569 q 449 603 490 603 q 367 587 406 603 q 300 540 329 571 q 254 466 271 510 q 238 368 238 422 l 238 365 q 254 269 238 313 q 300 194 271 225 q 367 147 329 164 q 449 131 406 131 m 408 -15 q 282 10 343 -15 q 174 83 221 35 q 97 203 126 132 q 68 365 68 274 l 68 368 q 97 531 68 460 q 172 650 125 601 q 281 724 219 699 q 408 749 343 749 q 558 710 499 749 q 658 619 618 671 l 658 1014 l 826 1014 l 826 0 l 658 0 l 658 122 q 558 25 618 65 q 408 -15 497 -15 z "},"e":{"ha":839,"x_min":65,"x_max":775,"o":"m 608 418 q 590 494 604 458 q 553 555 576 529 q 497 596 529 581 q 422 611 464 611 q 294 558 344 611 q 232 418 243 504 l 608 418 m 442 -17 q 294 11 363 -17 q 174 89 225 39 q 94 209 124 139 q 65 364 65 279 l 65 367 q 92 515 65 446 q 166 637 118 585 q 279 719 214 689 q 424 749 344 749 q 577 717 511 749 q 687 631 643 685 q 753 505 731 576 q 775 354 775 433 q 774 331 775 343 q 772 307 774 319 l 233 307 q 305 169 247 217 q 444 121 363 121 q 553 143 507 121 q 643 208 599 165 l 742 121 q 616 21 689 58 q 442 -17 543 -17 z "},"f":{"ha":522,"x_min":50,"x_max":504,"o":"m 143 589 l 50 589 l 50 729 l 143 729 l 143 782 q 203 964 143 904 q 368 1022 261 1022 q 444 1017 413 1022 q 504 1003 476 1011 l 504 861 q 456 874 479 869 q 406 879 433 879 q 308 768 308 879 l 308 728 l 503 728 l 503 589 l 311 589 l 311 0 l 143 0 l 143 589 z "},"g":{"ha":931,"x_min":68,"x_max":826,"o":"m 446 200 q 528 215 489 200 q 597 256 568 229 q 644 320 626 283 q 661 401 661 357 l 661 404 q 644 487 661 450 q 597 551 626 524 q 528 592 568 578 q 446 607 489 607 q 364 592 401 607 q 298 551 326 578 q 253 488 269 525 q 238 406 238 451 l 238 403 q 254 320 238 357 q 299 256 271 283 q 365 215 326 229 q 446 200 403 200 m 432 -225 q 104 -137 249 -225 l 167 -11 q 289 -68 225 -47 q 428 -89 353 -89 q 600 -32 540 -89 q 660 136 660 25 l 660 193 q 553 96 614 133 q 401 58 492 58 q 276 82 336 58 q 170 149 217 106 q 96 257 124 193 q 68 401 68 321 l 68 404 q 96 549 68 485 q 170 658 124 614 q 277 725 217 701 q 401 749 338 749 q 555 712 494 749 q 658 624 615 675 l 658 733 l 826 733 l 826 150 q 733 -126 826 -33 q 608 -201 683 -176 q 432 -225 532 -225 z "},"h":{"ha":861,"x_min":106,"x_max":764,"o":"m 106 1014 l 274 1014 l 274 619 q 313 669 292 646 q 363 710 335 692 q 426 738 392 728 q 503 749 460 749 q 696 672 628 749 q 764 467 764 596 l 764 0 l 596 0 l 596 417 q 555 549 596 503 q 439 596 514 596 q 319 548 365 596 q 274 414 274 500 l 274 0 l 106 0 l 106 1014 z "},"i":{"ha":397,"x_min":108,"x_max":289,"o":"m 115 733 l 283 733 l 283 0 l 115 0 l 115 733 m 108 1006 l 289 1006 l 289 846 l 108 846 l 108 1006 z "},"j":{"ha":397,"x_min":-11,"x_max":289,"o":"m 69 -226 q 27 -224 46 -226 q -11 -219 8 -222 l -11 -85 q 36 -89 14 -89 q 94 -69 72 -89 q 115 0 115 -49 l 115 733 l 283 733 l 283 -10 q 228 -174 283 -122 q 69 -226 174 -226 m 108 1006 l 289 1006 l 289 846 l 108 846 l 108 1006 z "},"k":{"ha":808,"x_min":106,"x_max":792,"o":"m 106 1014 l 274 1014 l 274 408 l 578 733 l 782 733 l 490 435 l 792 0 l 597 0 l 376 317 l 274 210 l 274 0 l 106 0 l 106 1014 z "},"l":{"ha":397,"x_min":115,"x_max":283,"o":"m 115 1014 l 283 1014 l 283 0 l 115 0 l 115 1014 z "},"m":{"ha":1319,"x_min":106,"x_max":1221,"o":"m 106 733 l 274 733 l 274 622 q 313 669 292 647 q 360 710 333 692 q 422 738 388 728 q 497 749 456 749 q 631 713 576 749 q 715 619 686 678 q 820 713 760 678 q 964 749 881 749 q 1153 676 1085 749 q 1221 468 1221 603 l 1221 0 l 1053 0 l 1053 417 q 1014 550 1053 504 q 904 596 975 596 q 791 549 835 596 q 747 414 747 503 l 747 0 l 579 0 l 579 418 q 540 550 579 504 q 431 596 501 596 q 317 547 360 596 q 274 413 274 499 l 274 0 l 106 0 l 106 733 z "},"n":{"ha":861,"x_min":106,"x_max":764,"o":"m 106 733 l 274 733 l 274 619 q 313 669 292 646 q 363 710 335 692 q 426 738 392 728 q 503 749 460 749 q 696 672 628 749 q 764 467 764 596 l 764 0 l 596 0 l 596 417 q 555 549 596 503 q 439 596 514 596 q 319 548 365 596 q 274 414 274 500 l 274 0 l 106 0 l 106 733 z "},"o":{"ha":913,"x_min":65,"x_max":847,"o":"m 457 129 q 549 148 508 129 q 619 199 590 167 q 664 273 649 231 q 679 363 679 315 l 679 365 q 663 457 679 414 q 616 532 646 500 q 545 583 586 564 q 454 601 504 601 q 363 583 404 601 q 293 533 322 564 q 249 458 264 501 q 233 368 233 415 l 233 365 q 250 274 233 317 q 297 199 267 232 q 367 148 326 167 q 457 129 408 129 m 454 -17 q 299 13 371 -17 q 176 94 228 43 q 94 215 124 146 q 65 363 65 285 l 65 365 q 95 514 65 444 q 177 635 125 583 q 301 718 229 688 q 457 749 372 749 q 613 719 542 749 q 737 637 685 689 q 818 516 789 585 q 847 368 847 447 l 847 365 q 817 218 847 288 q 735 97 788 149 q 611 14 683 44 q 454 -17 539 -17 z "},"p":{"ha":931,"x_min":106,"x_max":864,"o":"m 483 131 q 565 147 526 131 q 631 194 603 164 q 676 267 660 224 q 693 365 693 311 l 693 368 q 676 465 693 421 q 631 539 660 508 q 565 586 603 569 q 483 603 526 603 q 401 586 440 603 q 333 538 363 569 q 287 464 304 507 q 269 368 269 421 l 269 365 q 287 269 269 313 q 333 194 304 225 q 401 147 363 164 q 483 131 440 131 m 106 733 l 274 733 l 274 611 q 374 709 314 669 q 522 749 433 749 q 649 724 588 749 q 758 650 710 699 q 835 531 806 601 q 864 368 864 460 l 864 365 q 835 203 864 274 q 759 83 807 132 q 649 10 711 35 q 522 -15 588 -15 q 372 24 432 -15 q 274 114 313 63 l 274 -222 l 106 -222 l 106 733 z "},"q":{"ha":931,"x_min":68,"x_max":826,"o":"m 449 131 q 529 147 490 131 q 597 195 568 164 q 644 269 626 226 q 661 365 661 313 l 661 368 q 644 465 661 421 q 597 539 626 508 q 529 586 568 569 q 449 603 490 603 q 367 587 406 603 q 300 540 329 571 q 254 466 271 510 q 238 368 238 422 l 238 365 q 254 269 238 313 q 300 194 271 225 q 367 147 329 164 q 449 131 406 131 m 658 122 q 558 25 618 65 q 408 -15 497 -15 q 282 10 343 -15 q 174 83 221 35 q 97 203 126 132 q 68 365 68 274 l 68 368 q 97 531 68 460 q 172 650 125 601 q 281 724 219 699 q 408 749 343 749 q 558 710 499 749 q 658 619 618 671 l 658 733 l 826 733 l 826 -222 l 658 -222 l 658 122 z "},"r":{"ha":574,"x_min":106,"x_max":533,"o":"m 106 733 l 274 733 l 274 568 q 372 701 308 651 q 533 747 436 751 l 533 569 l 524 569 q 422 551 468 569 q 343 497 376 533 q 292 406 310 461 q 274 279 274 351 l 274 0 l 106 0 l 106 733 z "},"s":{"ha":694,"x_min":46,"x_max":629,"o":"m 357 -14 q 197 14 278 -14 q 46 96 115 42 l 121 210 q 242 142 181 165 q 361 119 304 119 q 445 141 415 119 q 475 199 475 163 l 475 201 q 462 238 475 222 q 426 264 449 253 q 373 285 403 275 q 311 304 343 294 q 230 331 271 315 q 156 370 189 346 q 103 431 124 394 q 82 519 82 467 l 82 522 q 102 615 82 574 q 158 686 122 657 q 241 731 193 715 q 343 746 289 746 q 483 724 413 746 q 613 663 554 701 l 546 543 q 439 594 493 575 q 339 613 385 613 q 263 592 290 613 q 236 539 236 571 l 236 536 q 250 502 236 517 q 287 476 264 488 q 340 453 310 464 q 401 433 369 443 q 482 404 442 421 q 555 363 522 388 q 608 304 588 339 q 629 219 629 269 l 629 217 q 608 115 629 158 q 551 44 588 72 q 464 1 514 15 q 357 -14 414 -14 z "},"t":{"ha":569,"x_min":47,"x_max":506,"o":"m 351 -12 q 267 -1 306 -12 q 199 35 228 10 q 156 101 171 60 q 140 203 140 142 l 140 589 l 47 589 l 47 733 l 140 733 l 140 935 l 308 935 l 308 733 l 506 733 l 506 589 l 308 589 l 308 229 q 332 159 308 181 q 399 138 356 138 q 503 163 453 138 l 503 25 q 435 -3 471 7 q 351 -12 399 -12 z "},"u":{"ha":861,"x_min":97,"x_max":756,"o":"m 358 -15 q 165 61 233 -15 q 97 267 97 138 l 97 733 l 265 733 l 265 317 q 306 184 265 231 q 422 138 347 138 q 542 185 496 138 q 588 319 588 233 l 588 733 l 756 733 l 756 0 l 588 0 l 588 114 q 497 23 551 61 q 358 -15 443 -15 z "},"v":{"ha":826,"x_min":36,"x_max":789,"o":"m 36 733 l 217 733 l 414 194 l 613 733 l 789 733 l 489 -6 l 338 -6 l 36 733 z "},"w":{"ha":1196,"x_min":44,"x_max":1151,"o":"m 44 733 l 217 733 l 364 231 l 526 736 l 669 736 l 833 231 l 983 733 l 1151 733 l 911 -6 l 761 -6 l 597 496 l 432 -6 l 282 -6 l 44 733 z "},"x":{"ha":806,"x_min":42,"x_max":764,"o":"m 311 372 l 51 733 l 235 733 l 404 492 l 574 733 l 753 733 l 493 376 l 764 0 l 581 0 l 400 257 l 221 0 l 42 0 l 311 372 z "},"y":{"ha":828,"x_min":36,"x_max":789,"o":"m 256 -226 q 162 -215 203 -226 q 82 -182 121 -203 l 139 -57 q 187 -77 163 -69 q 238 -85 211 -85 q 297 -67 274 -85 q 342 0 321 -49 l 36 733 l 215 733 l 424 189 l 614 733 l 789 733 l 497 -21 q 451 -117 475 -78 q 399 -180 428 -156 q 335 -215 369 -204 q 256 -226 300 -226 z "},"z":{"ha":778,"x_min":72,"x_max":710,"o":"m 72 115 l 496 596 l 88 596 l 88 733 l 710 733 l 710 618 l 286 138 l 710 138 l 710 0 l 72 0 l 72 115 z "},"{":{"ha":676,"x_min":72,"x_max":607,"o":"m 578 -196 q 422 -153 483 -179 q 326 -94 361 -128 q 276 -16 290 -60 q 263 82 263 28 q 263 103 263 90 q 264 131 264 117 q 265 160 264 146 q 265 182 265 174 q 231 299 265 264 q 108 335 196 335 l 72 335 l 72 463 l 108 463 q 231 498 196 463 q 265 615 265 533 q 265 638 265 624 q 264 666 264 651 q 263 694 264 681 q 263 715 263 707 q 276 813 263 769 q 326 890 290 856 q 422 951 361 925 q 578 993 483 976 l 607 882 q 507 847 544 865 q 450 808 469 829 q 424 758 431 786 q 418 692 418 729 q 419 641 418 671 q 421 589 421 611 q 383 464 421 507 q 276 399 346 421 q 384 333 347 375 q 421 208 421 290 q 419 156 421 186 q 418 106 418 126 q 424 40 418 68 q 450 -10 431 11 q 507 -50 469 -32 q 607 -85 544 -68 l 578 -196 z "},"|":{"ha":460,"x_min":163,"x_max":297,"o":"m 163 1108 l 297 1108 l 297 -178 l 163 -178 l 163 1108 z "},"}":{"ha":676,"x_min":69,"x_max":604,"o":"m 69 -85 q 169 -50 132 -68 q 226 -10 207 -32 q 252 40 246 11 q 258 106 258 68 q 257 156 258 126 q 256 208 256 186 q 293 333 256 290 q 400 399 331 376 q 292 465 329 422 q 256 589 256 507 q 257 641 256 611 q 258 692 258 671 q 252 758 258 729 q 226 808 246 786 q 169 847 207 829 q 69 882 132 865 l 99 993 q 254 951 193 976 q 351 890 315 925 q 400 813 386 856 q 414 715 414 769 q 413 694 414 707 q 413 666 413 681 q 412 638 413 651 q 411 615 411 624 q 446 498 411 533 q 568 463 481 463 l 604 463 l 604 335 l 568 335 q 446 299 481 335 q 411 182 411 264 q 412 160 411 174 q 413 131 413 146 q 413 103 413 117 q 414 82 414 90 q 400 -16 414 28 q 351 -94 386 -60 q 254 -153 315 -128 q 99 -196 193 -179 l 69 -85 z "},"~":{"ha":688,"x_min":82,"x_max":606,"o":"m 82 347 q 140 475 106 431 q 238 519 174 519 q 294 510 267 519 q 347 491 322 501 q 395 472 372 481 q 436 464 418 464 q 482 481 467 464 q 513 533 497 497 l 606 506 q 548 376 582 421 q 450 332 514 332 q 393 340 421 332 q 340 359 365 349 q 292 378 315 369 q 251 388 269 388 q 206 371 221 388 q 175 318 190 354 l 82 347 z "},"Ä":{"ha":1097,"x_min":42,"x_max":1056,"o":"m 325 1217 l 496 1217 l 496 1053 l 325 1053 l 325 1217 m 601 1217 l 772 1217 l 772 1053 l 601 1053 l 601 1217 m 714 386 l 546 775 l 379 386 l 714 386 m 469 979 l 628 979 l 1056 0 l 875 0 l 776 235 l 317 235 l 217 0 l 42 0 l 469 979 z "},"Å":{"ha":1097,"x_min":42,"x_max":1056,"o":"m 714 386 l 546 775 l 379 386 l 714 386 m 549 986 q 610 1011 585 986 q 635 1071 635 1036 l 635 1074 q 610 1133 635 1108 q 549 1158 585 1158 q 488 1133 513 1158 q 463 1074 463 1108 l 463 1071 q 488 1011 463 1036 q 549 986 513 986 m 456 950 q 409 1002 428 971 q 390 1071 390 1033 l 390 1074 q 403 1132 390 1104 q 438 1181 417 1160 q 488 1213 460 1201 q 549 1225 517 1225 q 608 1213 579 1225 q 659 1181 638 1201 q 694 1132 681 1160 q 707 1074 707 1104 l 707 1071 q 688 1002 707 1033 q 642 950 669 971 l 1056 0 l 875 0 l 776 235 l 317 235 l 217 0 l 42 0 l 456 950 z "},"Ç":{"ha":1025,"x_min":82,"x_max":971,"o":"m 369 -168 l 479 -7 q 319 53 392 10 q 193 162 246 97 q 111 309 140 226 q 82 483 82 392 l 82 486 q 119 681 82 590 q 222 841 156 772 q 381 949 289 910 q 583 989 472 989 q 705 978 650 989 q 806 947 760 967 q 890 899 851 926 q 964 838 929 871 l 854 711 q 731 799 796 765 q 582 832 665 832 q 453 805 513 832 q 351 731 394 778 q 285 622 308 685 q 261 489 261 560 l 261 486 q 285 352 261 415 q 351 242 308 289 q 453 167 394 194 q 582 140 513 140 q 735 174 671 140 q 861 267 799 208 l 971 156 q 897 88 935 118 q 816 36 860 58 q 721 1 772 14 q 607 -15 669 -12 l 515 -229 l 369 -168 z "},"É":{"ha":931,"x_min":125,"x_max":853,"o":"m 532 1281 l 685 1213 l 515 1053 l 385 1053 l 532 1281 m 125 972 l 846 972 l 846 819 l 296 819 l 296 567 l 783 567 l 783 414 l 296 414 l 296 153 l 853 153 l 853 0 l 125 0 l 125 972 z "},"Ñ":{"ha":1097,"x_min":125,"x_max":972,"o":"m 286 1067 q 344 1196 310 1151 q 442 1240 378 1240 q 499 1231 471 1240 q 552 1212 526 1222 q 600 1193 578 1201 q 642 1185 622 1185 q 688 1201 672 1185 q 718 1254 703 1218 l 811 1225 q 753 1097 788 1142 q 656 1053 719 1053 q 599 1061 626 1053 q 545 1080 571 1069 q 497 1099 519 1090 q 456 1108 474 1108 q 410 1092 425 1108 q 379 1039 394 1075 l 286 1067 m 125 972 l 283 972 l 804 300 l 804 972 l 972 972 l 972 0 l 829 0 l 293 692 l 293 0 l 125 0 l 125 972 z "},"Ö":{"ha":1181,"x_min":82,"x_max":1099,"o":"m 367 1217 l 538 1217 l 538 1053 l 367 1053 l 367 1217 m 643 1217 l 814 1217 l 814 1053 l 643 1053 l 643 1217 m 592 140 q 724 167 664 140 q 828 241 785 194 q 895 350 871 288 q 919 483 919 413 l 919 486 q 895 620 919 557 q 827 730 871 683 q 722 804 783 776 q 589 832 661 832 q 456 805 517 832 q 353 731 396 778 q 285 622 310 685 q 261 489 261 560 l 261 486 q 285 352 261 415 q 353 242 310 289 q 458 168 397 196 q 592 140 519 140 m 589 -17 q 383 23 476 -17 q 224 131 290 63 q 119 290 157 199 q 82 483 82 381 l 82 486 q 119 680 82 589 q 225 840 157 771 q 386 949 293 908 q 592 989 479 989 q 797 949 704 989 q 957 842 890 910 q 1061 683 1024 774 q 1099 489 1099 592 l 1099 486 q 1061 292 1099 383 q 956 133 1024 201 q 794 24 888 64 q 589 -17 701 -17 z "},"Ü":{"ha":1051,"x_min":110,"x_max":942,"o":"m 303 1215 l 474 1215 l 474 1051 l 303 1051 l 303 1215 m 579 1215 l 750 1215 l 750 1051 l 579 1051 l 579 1215 m 524 -15 q 353 12 429 -15 q 222 93 276 39 q 139 227 168 147 q 110 413 110 307 l 110 972 l 281 972 l 281 419 q 346 213 281 283 q 526 142 411 142 q 706 210 640 142 q 771 413 771 278 l 771 972 l 942 972 l 942 421 q 912 231 942 313 q 828 94 882 149 q 697 12 774 39 q 524 -15 619 -15 z "},"á":{"ha":815,"x_min":56,"x_max":721,"o":"m 474 1054 l 626 986 l 457 826 l 326 826 l 474 1054 m 558 307 q 483 328 526 319 q 390 336 439 336 q 267 306 311 336 q 222 222 222 275 l 222 219 q 263 139 222 167 q 364 111 304 111 q 441 122 406 111 q 503 153 476 133 q 544 202 529 174 q 558 265 558 231 l 558 307 m 554 0 l 554 90 q 458 15 517 46 q 317 -15 400 -15 q 217 -1 264 -15 q 134 42 169 14 q 77 113 99 71 q 56 211 56 156 l 56 214 q 78 320 56 275 q 140 395 100 365 q 234 440 179 425 q 353 454 289 454 q 466 446 419 454 q 556 424 513 438 l 556 438 q 509 554 556 514 q 375 594 463 594 q 264 582 313 594 q 165 549 215 569 l 119 683 q 244 728 181 711 q 399 744 308 744 q 642 663 563 744 q 721 435 721 582 l 721 0 l 554 0 z "},"à":{"ha":815,"x_min":56,"x_max":721,"o":"m 188 986 l 340 1054 l 488 826 l 357 826 l 188 986 m 558 307 q 483 328 526 319 q 390 336 439 336 q 267 306 311 336 q 222 222 222 275 l 222 219 q 263 139 222 167 q 364 111 304 111 q 441 122 406 111 q 503 153 476 133 q 544 202 529 174 q 558 265 558 231 l 558 307 m 554 0 l 554 90 q 458 15 517 46 q 317 -15 400 -15 q 217 -1 264 -15 q 134 42 169 14 q 77 113 99 71 q 56 211 56 156 l 56 214 q 78 320 56 275 q 140 395 100 365 q 234 440 179 425 q 353 454 289 454 q 466 446 419 454 q 556 424 513 438 l 556 438 q 509 554 556 514 q 375 594 463 594 q 264 582 313 594 q 165 549 215 569 l 119 683 q 244 728 181 711 q 399 744 308 744 q 642 663 563 744 q 721 435 721 582 l 721 0 l 554 0 z "},"â":{"ha":815,"x_min":56,"x_max":721,"o":"m 329 1029 l 485 1029 l 646 826 l 513 826 l 406 919 l 299 826 l 168 826 l 329 1029 m 558 307 q 483 328 526 319 q 390 336 439 336 q 267 306 311 336 q 222 222 222 275 l 222 219 q 263 139 222 167 q 364 111 304 111 q 441 122 406 111 q 503 153 476 133 q 544 202 529 174 q 558 265 558 231 l 558 307 m 554 0 l 554 90 q 458 15 517 46 q 317 -15 400 -15 q 217 -1 264 -15 q 134 42 169 14 q 77 113 99 71 q 56 211 56 156 l 56 214 q 78 320 56 275 q 140 395 100 365 q 234 440 179 425 q 353 454 289 454 q 466 446 419 454 q 556 424 513 438 l 556 438 q 509 554 556 514 q 375 594 463 594 q 264 582 313 594 q 165 549 215 569 l 119 683 q 244 728 181 711 q 399 744 308 744 q 642 663 563 744 q 721 435 721 582 l 721 0 l 554 0 z "},"ä":{"ha":815,"x_min":56,"x_max":721,"o":"m 183 990 l 354 990 l 354 826 l 183 826 l 183 990 m 460 990 l 631 990 l 631 826 l 460 826 l 460 990 m 558 307 q 483 328 526 319 q 390 336 439 336 q 267 306 311 336 q 222 222 222 275 l 222 219 q 263 139 222 167 q 364 111 304 111 q 441 122 406 111 q 503 153 476 133 q 544 202 529 174 q 558 265 558 231 l 558 307 m 554 0 l 554 90 q 458 15 517 46 q 317 -15 400 -15 q 217 -1 264 -15 q 134 42 169 14 q 77 113 99 71 q 56 211 56 156 l 56 214 q 78 320 56 275 q 140 395 100 365 q 234 440 179 425 q 353 454 289 454 q 466 446 419 454 q 556 424 513 438 l 556 438 q 509 554 556 514 q 375 594 463 594 q 264 582 313 594 q 165 549 215 569 l 119 683 q 244 728 181 711 q 399 744 308 744 q 642 663 563 744 q 721 435 721 582 l 721 0 l 554 0 z "},"ã":{"ha":815,"x_min":56,"x_max":721,"o":"m 146 840 q 203 969 169 925 q 301 1014 238 1014 q 358 1005 331 1014 q 412 985 386 996 q 460 967 438 975 q 501 958 482 958 q 547 975 532 958 q 578 1028 563 992 l 671 999 q 613 871 647 915 q 515 826 579 826 q 458 835 486 826 q 405 853 431 843 q 356 873 379 864 q 315 882 333 882 q 269 865 285 882 q 239 813 254 849 l 146 840 m 558 307 q 483 328 526 319 q 390 336 439 336 q 267 306 311 336 q 222 222 222 275 l 222 219 q 263 139 222 167 q 364 111 304 111 q 441 122 406 111 q 503 153 476 133 q 544 202 529 174 q 558 265 558 231 l 558 307 m 554 0 l 554 90 q 458 15 517 46 q 317 -15 400 -15 q 217 -1 264 -15 q 134 42 169 14 q 77 113 99 71 q 56 211 56 156 l 56 214 q 78 320 56 275 q 140 395 100 365 q 234 440 179 425 q 353 454 289 454 q 466 446 419 454 q 556 424 513 438 l 556 438 q 509 554 556 514 q 375 594 463 594 q 264 582 313 594 q 165 549 215 569 l 119 683 q 244 728 181 711 q 399 744 308 744 q 642 663 563 744 q 721 435 721 582 l 721 0 l 554 0 z "},"å":{"ha":815,"x_min":56,"x_max":721,"o":"m 407 890 q 468 915 443 890 q 493 975 493 940 l 493 978 q 468 1038 493 1013 q 407 1063 443 1063 q 346 1038 371 1063 q 321 978 321 1013 l 321 975 q 346 915 321 940 q 407 890 371 890 m 407 824 q 347 835 375 824 q 297 868 318 847 q 262 917 275 889 q 249 975 249 944 l 249 978 q 262 1036 249 1008 q 297 1085 275 1064 q 347 1117 318 1106 q 407 1129 375 1129 q 467 1117 438 1129 q 517 1085 496 1106 q 552 1036 539 1064 q 565 978 565 1008 l 565 975 q 552 917 565 944 q 517 868 539 889 q 467 835 496 847 q 407 824 438 824 m 558 307 q 483 328 526 319 q 390 336 439 336 q 267 306 311 336 q 222 222 222 275 l 222 219 q 263 139 222 167 q 364 111 304 111 q 441 122 406 111 q 503 153 476 133 q 544 202 529 174 q 558 265 558 231 l 558 307 m 554 0 l 554 90 q 458 15 517 46 q 317 -15 400 -15 q 217 -1 264 -15 q 134 42 169 14 q 77 113 99 71 q 56 211 56 156 l 56 214 q 78 320 56 275 q 140 395 100 365 q 234 440 179 425 q 353 454 289 454 q 466 446 419 454 q 556 424 513 438 l 556 438 q 509 554 556 514 q 375 594 463 594 q 264 582 313 594 q 165 549 215 569 l 119 683 q 244 728 181 711 q 399 744 308 744 q 642 663 563 744 q 721 435 721 582 l 721 0 l 554 0 z "},"ç":{"ha":793,"x_min":65,"x_max":744,"o":"m 236 -168 l 347 -4 q 233 46 285 11 q 144 128 181 81 q 86 236 107 176 q 65 363 65 296 l 65 365 q 94 513 65 443 q 173 635 122 583 q 294 718 224 688 q 446 749 364 749 q 619 714 550 749 q 739 622 688 679 l 635 510 q 552 576 596 550 q 444 601 508 601 q 360 583 399 601 q 293 533 321 564 q 249 458 265 501 q 233 368 233 415 l 233 365 q 249 274 233 317 q 294 199 265 231 q 364 148 324 167 q 453 129 404 129 q 558 155 513 129 q 643 221 603 181 l 744 121 q 631 28 693 65 q 474 -15 568 -10 l 383 -229 l 236 -168 z "},"é":{"ha":839,"x_min":65,"x_max":775,"o":"m 493 1054 l 646 986 l 476 826 l 346 826 l 493 1054 m 608 418 q 590 494 604 458 q 553 555 576 529 q 497 596 529 581 q 422 611 464 611 q 294 558 344 611 q 232 418 243 504 l 608 418 m 442 -17 q 294 11 363 -17 q 174 89 225 39 q 94 209 124 139 q 65 364 65 279 l 65 367 q 92 515 65 446 q 166 637 118 585 q 279 719 214 689 q 424 749 344 749 q 577 717 511 749 q 687 631 643 685 q 753 505 731 576 q 775 354 775 433 q 774 331 775 343 q 772 307 774 319 l 233 307 q 305 169 247 217 q 444 121 363 121 q 553 143 507 121 q 643 208 599 165 l 742 121 q 616 21 689 58 q 442 -17 543 -17 z "},"è":{"ha":839,"x_min":65,"x_max":775,"o":"m 193 986 l 346 1054 l 493 826 l 363 826 l 193 986 m 608 418 q 590 494 604 458 q 553 555 576 529 q 497 596 529 581 q 422 611 464 611 q 294 558 344 611 q 232 418 243 504 l 608 418 m 442 -17 q 294 11 363 -17 q 174 89 225 39 q 94 209 124 139 q 65 364 65 279 l 65 367 q 92 515 65 446 q 166 637 118 585 q 279 719 214 689 q 424 749 344 749 q 577 717 511 749 q 687 631 643 685 q 753 505 731 576 q 775 354 775 433 q 774 331 775 343 q 772 307 774 319 l 233 307 q 305 169 247 217 q 444 121 363 121 q 553 143 507 121 q 643 208 599 165 l 742 121 q 616 21 689 58 q 442 -17 543 -17 z "},"ê":{"ha":839,"x_min":65,"x_max":775,"o":"m 343 1029 l 499 1029 l 660 826 l 526 826 l 419 919 l 313 826 l 182 826 l 343 1029 m 608 418 q 590 494 604 458 q 553 555 576 529 q 497 596 529 581 q 422 611 464 611 q 294 558 344 611 q 232 418 243 504 l 608 418 m 442 -17 q 294 11 363 -17 q 174 89 225 39 q 94 209 124 139 q 65 364 65 279 l 65 367 q 92 515 65 446 q 166 637 118 585 q 279 719 214 689 q 424 749 344 749 q 577 717 511 749 q 687 631 643 685 q 753 505 731 576 q 775 354 775 433 q 774 331 775 343 q 772 307 774 319 l 233 307 q 305 169 247 217 q 444 121 363 121 q 553 143 507 121 q 643 208 599 165 l 742 121 q 616 21 689 58 q 442 -17 543 -17 z "},"ë":{"ha":839,"x_min":65,"x_max":775,"o":"m 197 990 l 368 990 l 368 826 l 197 826 l 197 990 m 474 990 l 644 990 l 644 826 l 474 826 l 474 990 m 608 418 q 590 494 604 458 q 553 555 576 529 q 497 596 529 581 q 422 611 464 611 q 294 558 344 611 q 232 418 243 504 l 608 418 m 442 -17 q 294 11 363 -17 q 174 89 225 39 q 94 209 124 139 q 65 364 65 279 l 65 367 q 92 515 65 446 q 166 637 118 585 q 279 719 214 689 q 424 749 344 749 q 577 717 511 749 q 687 631 643 685 q 753 505 731 576 q 775 354 775 433 q 774 331 775 343 q 772 307 774 319 l 233 307 q 305 169 247 217 q 444 121 363 121 q 553 143 507 121 q 643 208 599 165 l 742 121 q 616 21 689 58 q 442 -17 543 -17 z "},"í":{"ha":397,"x_min":115,"x_max":426,"o":"m 274 1054 l 426 986 l 257 826 l 126 826 l 274 1054 m 115 733 l 283 733 l 283 0 l 115 0 l 115 733 z "},"ì":{"ha":397,"x_min":-29,"x_max":283,"o":"m -29 986 l 124 1054 l 271 826 l 140 826 l -29 986 m 115 733 l 283 733 l 283 0 l 115 0 l 115 733 z "},"î":{"ha":397,"x_min":-40,"x_max":438,"o":"m 121 1029 l 276 1029 l 438 826 l 304 826 l 197 919 l 90 826 l -40 826 l 121 1029 m 115 733 l 283 733 l 283 0 l 115 0 l 115 733 z "},"ï":{"ha":397,"x_min":-25,"x_max":422,"o":"m -25 990 l 146 990 l 146 826 l -25 826 l -25 990 m 251 990 l 422 990 l 422 826 l 251 826 l 251 990 m 115 733 l 283 733 l 283 0 l 115 0 l 115 733 z "},"ñ":{"ha":861,"x_min":106,"x_max":764,"o":"m 174 840 q 231 969 197 925 q 329 1014 265 1014 q 386 1005 358 1014 q 440 985 414 996 q 489 967 467 975 q 531 958 511 958 q 576 975 561 958 q 607 1028 592 992 l 700 999 q 642 871 676 915 q 544 826 608 826 q 488 835 515 826 q 434 853 460 843 q 385 873 408 864 q 343 882 363 882 q 297 865 313 882 q 267 813 282 849 l 174 840 m 106 733 l 274 733 l 274 619 q 313 669 292 646 q 363 710 335 692 q 426 738 392 728 q 503 749 460 749 q 696 672 628 749 q 764 467 764 596 l 764 0 l 596 0 l 596 417 q 555 549 596 503 q 439 596 514 596 q 319 548 365 596 q 274 414 274 500 l 274 0 l 106 0 l 106 733 z "},"ó":{"ha":913,"x_min":65,"x_max":847,"o":"m 538 1054 l 690 986 l 521 826 l 390 826 l 538 1054 m 457 129 q 549 148 508 129 q 619 199 590 167 q 664 273 649 231 q 679 363 679 315 l 679 365 q 663 457 679 414 q 616 532 646 500 q 545 583 586 564 q 454 601 504 601 q 363 583 404 601 q 293 533 322 564 q 249 458 264 501 q 233 368 233 415 l 233 365 q 250 274 233 317 q 297 199 267 232 q 367 148 326 167 q 457 129 408 129 m 454 -17 q 299 13 371 -17 q 176 94 228 43 q 94 215 124 146 q 65 363 65 285 l 65 365 q 95 514 65 444 q 177 635 125 583 q 301 718 229 688 q 457 749 372 749 q 613 719 542 749 q 737 637 685 689 q 818 516 789 585 q 847 368 847 447 l 847 365 q 817 218 847 288 q 735 97 788 149 q 611 14 683 44 q 454 -17 539 -17 z "},"ò":{"ha":913,"x_min":65,"x_max":847,"o":"m 221 986 l 374 1054 l 521 826 l 390 826 l 221 986 m 457 129 q 549 148 508 129 q 619 199 590 167 q 664 273 649 231 q 679 363 679 315 l 679 365 q 663 457 679 414 q 616 532 646 500 q 545 583 586 564 q 454 601 504 601 q 363 583 404 601 q 293 533 322 564 q 249 458 264 501 q 233 368 233 415 l 233 365 q 250 274 233 317 q 297 199 267 232 q 367 148 326 167 q 457 129 408 129 m 454 -17 q 299 13 371 -17 q 176 94 228 43 q 94 215 124 146 q 65 363 65 285 l 65 365 q 95 514 65 444 q 177 635 125 583 q 301 718 229 688 q 457 749 372 749 q 613 719 542 749 q 737 637 685 689 q 818 516 789 585 q 847 368 847 447 l 847 365 q 817 218 847 288 q 735 97 788 149 q 611 14 683 44 q 454 -17 539 -17 z "},"ô":{"ha":913,"x_min":65,"x_max":847,"o":"m 378 1029 l 533 1029 l 694 826 l 561 826 l 454 919 l 347 826 l 217 826 l 378 1029 m 457 129 q 549 148 508 129 q 619 199 590 167 q 664 273 649 231 q 679 363 679 315 l 679 365 q 663 457 679 414 q 616 532 646 500 q 545 583 586 564 q 454 601 504 601 q 363 583 404 601 q 293 533 322 564 q 249 458 264 501 q 233 368 233 415 l 233 365 q 250 274 233 317 q 297 199 267 232 q 367 148 326 167 q 457 129 408 129 m 454 -17 q 299 13 371 -17 q 176 94 228 43 q 94 215 124 146 q 65 363 65 285 l 65 365 q 95 514 65 444 q 177 635 125 583 q 301 718 229 688 q 457 749 372 749 q 613 719 542 749 q 737 637 685 689 q 818 516 789 585 q 847 368 847 447 l 847 365 q 817 218 847 288 q 735 97 788 149 q 611 14 683 44 q 454 -17 539 -17 z "},"ö":{"ha":913,"x_min":65,"x_max":847,"o":"m 232 990 l 403 990 l 403 826 l 232 826 l 232 990 m 508 990 l 679 990 l 679 826 l 508 826 l 508 990 m 457 129 q 549 148 508 129 q 619 199 590 167 q 664 273 649 231 q 679 363 679 315 l 679 365 q 663 457 679 414 q 616 532 646 500 q 545 583 586 564 q 454 601 504 601 q 363 583 404 601 q 293 533 322 564 q 249 458 264 501 q 233 368 233 415 l 233 365 q 250 274 233 317 q 297 199 267 232 q 367 148 326 167 q 457 129 408 129 m 454 -17 q 299 13 371 -17 q 176 94 228 43 q 94 215 124 146 q 65 363 65 285 l 65 365 q 95 514 65 444 q 177 635 125 583 q 301 718 229 688 q 457 749 372 749 q 613 719 542 749 q 737 637 685 689 q 818 516 789 585 q 847 368 847 447 l 847 365 q 817 218 847 288 q 735 97 788 149 q 611 14 683 44 q 454 -17 539 -17 z "},"õ":{"ha":913,"x_min":65,"x_max":847,"o":"m 193 840 q 251 969 217 925 q 349 1014 285 1014 q 406 1005 378 1014 q 459 985 433 996 q 507 967 485 975 q 549 958 529 958 q 594 975 579 958 q 625 1028 610 992 l 718 999 q 660 871 694 915 q 563 826 626 826 q 506 835 533 826 q 452 853 478 843 q 403 873 426 864 q 363 882 381 882 q 317 865 332 882 q 286 813 301 849 l 193 840 m 457 129 q 549 148 508 129 q 619 199 590 167 q 664 273 649 231 q 679 363 679 315 l 679 365 q 663 457 679 414 q 616 532 646 500 q 545 583 586 564 q 454 601 504 601 q 363 583 404 601 q 293 533 322 564 q 249 458 264 501 q 233 368 233 415 l 233 365 q 250 274 233 317 q 297 199 267 232 q 367 148 326 167 q 457 129 408 129 m 454 -17 q 299 13 371 -17 q 176 94 228 43 q 94 215 124 146 q 65 363 65 285 l 65 365 q 95 514 65 444 q 177 635 125 583 q 301 718 229 688 q 457 749 372 749 q 613 719 542 749 q 737 637 685 689 q 818 516 789 585 q 847 368 847 447 l 847 365 q 817 218 847 288 q 735 97 788 149 q 611 14 683 44 q 454 -17 539 -17 z "},"ú":{"ha":861,"x_min":97,"x_max":756,"o":"m 493 1053 l 646 985 l 476 825 l 346 825 l 493 1053 m 358 -15 q 165 61 233 -15 q 97 267 97 138 l 97 733 l 265 733 l 265 317 q 306 184 265 231 q 422 138 347 138 q 542 185 496 138 q 588 319 588 233 l 588 733 l 756 733 l 756 0 l 588 0 l 588 114 q 497 23 551 61 q 358 -15 443 -15 z "},"ù":{"ha":861,"x_min":97,"x_max":756,"o":"m 213 985 l 365 1053 l 513 825 l 382 825 l 213 985 m 358 -15 q 165 61 233 -15 q 97 267 97 138 l 97 733 l 265 733 l 265 317 q 306 184 265 231 q 422 138 347 138 q 542 185 496 138 q 588 319 588 233 l 588 733 l 756 733 l 756 0 l 588 0 l 588 114 q 497 23 551 61 q 358 -15 443 -15 z "},"û":{"ha":861,"x_min":97,"x_max":756,"o":"m 353 1029 l 508 1029 l 669 826 l 536 826 l 429 919 l 322 826 l 192 826 l 353 1029 m 358 -15 q 165 61 233 -15 q 97 267 97 138 l 97 733 l 265 733 l 265 317 q 306 184 265 231 q 422 138 347 138 q 542 185 496 138 q 588 319 588 233 l 588 733 l 756 733 l 756 0 l 588 0 l 588 114 q 497 23 551 61 q 358 -15 443 -15 z "},"ü":{"ha":861,"x_min":97,"x_max":756,"o":"m 207 990 l 378 990 l 378 826 l 207 826 l 207 990 m 483 990 l 654 990 l 654 826 l 483 826 l 483 990 m 358 -15 q 165 61 233 -15 q 97 267 97 138 l 97 733 l 265 733 l 265 317 q 306 184 265 231 q 422 138 347 138 q 542 185 496 138 q 588 319 588 233 l 588 733 l 756 733 l 756 0 l 588 0 l 588 114 q 497 23 551 61 q 358 -15 443 -15 z "},"†":{"ha":569,"x_min":78,"x_max":492,"o":"m 247 713 l 78 700 l 78 799 l 246 786 l 229 972 l 340 972 l 324 786 l 492 799 l 492 700 l 322 713 l 335 331 l 235 331 l 247 713 z "},"°":{"ha":654,"x_min":96,"x_max":558,"o":"m 326 621 q 379 632 356 621 q 421 661 403 643 q 449 703 439 679 q 458 754 458 728 l 458 757 q 449 808 458 783 q 421 850 439 832 q 379 878 403 868 q 326 889 356 889 q 274 878 299 889 q 233 850 250 868 q 206 808 215 832 q 196 757 196 783 l 196 754 q 206 703 196 728 q 233 661 215 679 q 274 632 250 643 q 326 621 299 621 m 326 529 q 239 547 281 529 q 165 597 197 565 q 115 668 133 628 q 96 754 96 708 l 96 757 q 115 843 96 803 q 165 914 133 883 q 239 963 197 944 q 326 981 281 981 q 414 963 372 981 q 488 914 456 944 q 540 843 521 883 q 558 757 558 803 l 558 754 q 540 668 558 708 q 488 597 521 628 q 414 547 456 565 q 326 529 372 529 z "},"¢":{"ha":807,"x_min":72,"x_max":747,"o":"m 442 729 q 360 709 397 728 q 294 659 322 690 q 251 585 267 628 q 236 496 236 543 l 236 493 q 267 366 236 422 q 354 281 299 310 l 442 729 m 319 133 q 219 188 265 153 q 141 269 174 222 q 90 373 108 317 q 72 490 72 429 l 72 493 q 101 642 72 572 q 180 763 129 711 q 300 845 231 815 q 451 875 369 875 l 464 875 l 485 981 l 607 981 l 582 857 q 673 813 633 842 q 746 749 713 785 l 644 640 q 599 681 622 663 q 549 710 575 699 l 458 257 q 563 283 517 258 q 650 347 610 308 l 747 251 q 621 151 693 190 q 446 111 549 111 l 438 111 l 414 -8 l 292 -8 l 319 133 z "},"£":{"ha":894,"x_min":88,"x_max":824,"o":"m 88 108 l 197 142 l 197 386 l 88 386 l 88 531 l 197 531 l 197 658 q 219 797 197 735 q 283 900 242 858 q 517 986 367 986 q 621 974 575 986 q 703 942 667 963 q 769 892 740 921 q 824 831 799 864 l 693 726 q 616 801 656 775 q 518 828 576 828 q 461 818 486 828 q 417 789 436 808 q 382 732 394 765 q 369 654 369 699 l 369 531 l 715 531 l 715 386 l 369 386 l 369 149 l 821 149 l 821 0 l 88 0 l 88 108 z "},"§":{"ha":878,"x_min":81,"x_max":797,"o":"m 539 386 q 616 408 586 386 q 646 461 646 429 l 646 464 q 609 517 646 494 q 483 561 572 539 q 397 581 431 575 q 339 586 363 586 q 262 565 292 586 q 232 511 232 543 l 232 508 q 269 456 232 478 q 394 411 306 433 q 481 392 447 397 q 539 386 515 386 m 453 -14 q 270 21 350 -14 q 132 118 190 56 l 228 213 q 331 141 276 168 q 451 114 385 114 q 537 133 510 114 q 564 182 564 153 l 564 185 q 556 213 564 200 q 526 236 547 225 q 470 258 506 247 q 381 282 435 269 q 243 320 300 300 q 150 364 186 340 q 97 417 114 388 q 81 485 81 447 l 81 488 q 123 594 81 556 q 229 649 165 632 q 172 706 192 672 q 153 781 153 740 l 153 783 q 225 931 153 876 q 425 986 297 986 q 608 951 528 986 q 746 854 688 917 l 650 760 q 547 831 601 804 q 426 858 493 858 q 342 840 371 858 q 314 790 314 821 l 314 788 q 322 761 314 774 q 349 738 329 749 q 405 715 369 726 q 497 690 440 703 q 635 652 578 672 q 728 608 692 632 q 781 555 764 585 q 797 488 797 525 l 797 485 q 755 379 797 418 q 649 324 713 340 q 705 267 685 301 q 725 192 725 232 l 725 189 q 653 42 725 97 q 453 -14 582 -14 z "},"•":{"ha":682,"x_min":144,"x_max":538,"o":"m 340 293 q 265 308 300 293 q 202 350 229 324 q 160 412 175 376 q 144 488 144 447 l 144 490 q 160 566 144 531 q 203 628 176 601 q 265 669 229 654 q 340 685 300 685 q 416 669 381 685 q 478 628 451 654 q 522 566 506 601 q 538 490 538 531 l 538 488 q 522 412 538 447 q 480 350 507 376 q 417 308 453 324 q 340 293 381 293 z "},"¶":{"ha":774,"x_min":56,"x_max":653,"o":"m 481 339 l 456 339 q 297 359 369 339 q 170 419 224 379 q 86 517 117 458 q 56 654 56 576 l 56 657 q 83 789 56 731 q 160 888 111 847 q 279 951 210 929 q 432 972 349 972 l 653 972 l 653 0 l 481 0 l 481 339 z "},"ß":{"ha":861,"x_min":106,"x_max":793,"o":"m 411 126 q 569 167 513 129 q 625 276 625 206 l 625 279 q 566 387 625 347 q 411 438 507 426 l 411 551 q 523 629 478 583 q 568 744 568 675 l 568 747 q 530 844 568 808 q 428 881 492 881 q 315 833 358 881 q 272 703 272 785 l 272 0 l 106 0 l 106 697 q 128 833 106 772 q 194 935 151 893 q 299 1001 238 978 q 436 1024 360 1024 q 563 1003 507 1024 q 656 948 618 983 q 715 865 694 913 q 735 763 735 817 l 735 760 q 722 676 735 713 q 689 610 710 639 q 640 560 668 582 q 582 522 613 539 q 660 488 622 508 q 728 437 699 467 q 775 367 757 407 q 793 275 793 326 l 793 272 q 766 153 793 206 q 690 65 739 100 q 569 12 640 29 q 411 -3 499 -6 l 411 126 z "},"®":{"ha":1153,"x_min":74,"x_max":1079,"o":"m 604 507 q 681 529 653 507 q 708 589 708 551 l 708 592 q 681 653 708 632 q 604 674 653 674 l 474 674 l 474 507 l 604 507 m 374 764 l 608 764 q 768 707 711 764 q 811 597 811 667 l 811 594 q 777 491 811 531 q 689 436 743 451 l 831 238 l 711 238 l 583 419 l 581 419 l 474 419 l 474 238 l 374 238 l 374 764 m 575 33 q 753 69 671 33 q 897 167 836 106 q 992 310 957 228 q 1026 486 1026 393 l 1026 489 q 992 664 1026 582 q 898 807 958 746 q 756 903 838 868 q 578 939 674 939 q 399 903 482 939 q 256 806 317 867 q 161 662 196 744 q 126 486 126 579 l 126 483 q 160 308 126 390 q 255 165 194 226 q 397 69 315 104 q 575 33 479 33 m 575 -17 q 378 23 469 -17 q 219 131 286 63 q 113 290 151 199 q 74 483 74 381 l 74 486 q 113 680 74 589 q 219 840 151 771 q 380 949 288 908 q 578 989 472 989 q 775 949 683 989 q 934 842 867 910 q 1040 683 1001 774 q 1079 489 1079 592 l 1079 486 q 1040 292 1079 383 q 933 133 1001 201 q 773 24 865 64 q 575 -17 681 -17 z "},"©":{"ha":1153,"x_min":74,"x_max":1079,"o":"m 582 221 q 476 242 525 221 q 391 299 426 263 q 335 385 356 336 q 315 490 315 433 l 315 493 q 335 598 315 549 q 391 685 356 647 q 476 744 426 722 q 585 765 526 765 q 707 742 660 765 q 792 683 754 719 l 726 608 q 661 653 696 636 q 585 671 626 671 q 519 657 549 671 q 467 619 489 643 q 433 563 446 594 q 421 494 421 531 l 421 492 q 433 424 421 456 q 467 367 446 392 q 519 329 489 343 q 585 315 549 315 q 665 333 632 315 q 729 381 697 350 l 796 315 q 706 246 754 271 q 582 221 657 221 m 575 33 q 753 69 671 33 q 897 167 836 106 q 992 310 957 228 q 1026 486 1026 393 l 1026 489 q 992 664 1026 582 q 898 807 958 746 q 756 903 838 868 q 578 939 674 939 q 399 903 482 939 q 256 806 317 867 q 161 662 196 744 q 126 486 126 579 l 126 483 q 160 308 126 390 q 255 165 194 226 q 397 69 315 104 q 575 33 479 33 m 575 -17 q 378 23 469 -17 q 219 131 286 63 q 113 290 151 199 q 74 483 74 381 l 74 486 q 113 680 74 589 q 219 840 151 771 q 380 949 288 908 q 578 989 472 989 q 775 949 683 989 q 934 842 867 910 q 1040 683 1001 774 q 1079 489 1079 592 l 1079 486 q 1040 292 1079 383 q 933 133 1001 201 q 773 24 865 64 q 575 -17 681 -17 z "},"™":{"ha":958,"x_min":36,"x_max":904,"o":"m 168 897 l 36 897 l 36 972 l 382 972 l 382 897 l 250 897 l 250 544 l 168 544 l 168 897 m 474 972 l 561 972 l 690 769 l 819 972 l 904 972 l 904 544 l 825 544 l 825 849 l 693 643 l 685 643 l 553 849 l 553 544 l 474 544 l 474 972 z "},"´":{"ha":694,"x_min":222,"x_max":522,"o":"m 369 1054 l 522 986 l 353 826 l 222 826 l 369 1054 z "},"¨":{"ha":694,"x_min":124,"x_max":571,"o":"m 124 990 l 294 990 l 294 826 l 124 826 l 124 990 m 400 990 l 571 990 l 571 826 l 400 826 l 400 990 z "},"Æ":{"ha":1451,"x_min":17,"x_max":1374,"o":"m 676 386 l 676 824 l 649 824 l 404 386 l 676 386 m 560 972 l 1367 972 l 1367 819 l 847 819 l 847 567 l 1304 567 l 1304 414 l 847 414 l 847 153 l 1374 153 l 1374 0 l 676 0 l 676 235 l 322 235 l 193 0 l 17 0 l 560 972 z "},"Ø":{"ha":1181,"x_min":71,"x_max":1110,"o":"m 592 138 q 725 165 664 138 q 830 239 786 192 q 898 349 874 286 q 922 483 922 413 l 922 486 q 858 693 922 604 l 414 193 q 495 152 450 167 q 592 138 540 138 m 767 779 q 685 820 731 806 q 589 835 640 835 q 456 808 517 835 q 351 733 394 781 q 283 623 307 686 q 258 489 258 560 l 258 486 q 322 279 258 368 l 767 779 m 589 -17 q 436 5 507 -17 q 306 67 365 26 l 239 -7 l 71 -7 l 208 147 q 115 301 147 214 q 82 483 82 388 l 82 486 q 119 680 82 589 q 225 840 157 771 q 386 949 293 908 q 592 989 479 989 q 744 967 674 989 q 875 906 815 946 l 942 979 l 1110 979 l 972 824 q 1066 671 1033 757 q 1099 489 1099 585 l 1099 486 q 1061 292 1099 383 q 956 133 1024 201 q 794 24 888 64 q 589 -17 701 -17 z "},"±":{"ha":847,"x_min":54,"x_max":778,"o":"m 432 -17 q 217 30 313 -17 q 54 153 121 76 l 172 263 q 287 171 224 204 q 435 138 350 138 q 562 176 515 138 q 608 278 608 214 l 608 281 q 552 383 608 347 q 394 418 496 418 l 290 418 l 290 563 l 399 563 q 533 601 483 563 q 582 701 582 639 l 582 704 q 538 799 582 763 q 414 835 493 835 q 292 802 343 835 q 193 713 242 769 l 74 810 q 140 883 104 850 q 216 940 175 917 q 306 976 257 964 q 417 989 356 989 q 553 969 492 989 q 659 915 615 950 q 727 833 703 881 q 751 729 751 785 l 751 726 q 709 581 751 635 q 607 499 667 528 q 674 465 643 485 q 728 419 706 446 q 765 358 751 393 q 778 279 778 324 l 778 276 q 754 160 778 214 q 686 67 731 107 q 577 6 642 28 q 432 -17 513 -17 z "},"¥":{"ha":953,"x_min":26,"x_max":926,"o":"m 394 142 l 126 142 l 126 265 l 394 265 l 394 367 l 126 367 l 126 490 l 347 490 l 26 972 l 225 972 l 479 565 l 733 972 l 926 972 l 604 490 l 826 490 l 826 367 l 558 367 l 558 265 l 826 265 l 826 142 l 558 142 l 558 0 l 394 0 l 394 142 z "},"µ":{"ha":1181,"x_min":82,"x_max":1175,"o":"m 592 140 q 724 167 664 140 q 828 241 785 194 q 895 350 871 288 q 919 483 919 413 l 919 486 q 895 620 919 557 q 827 730 871 683 q 722 804 783 776 q 589 832 661 832 q 456 805 517 832 q 353 731 396 778 q 285 622 310 685 q 261 489 261 560 l 261 486 q 285 352 261 415 q 353 242 310 289 q 458 168 397 196 q 592 140 519 140 m 763 14 q 679 -9 722 -1 q 589 -17 636 -17 q 383 23 476 -17 q 224 131 290 63 q 119 290 157 199 q 82 483 82 381 l 82 486 q 119 680 82 589 q 225 840 157 771 q 386 949 293 908 q 592 989 479 989 q 797 949 704 989 q 957 842 890 910 q 1061 683 1024 774 q 1099 489 1099 592 l 1099 486 q 1055 278 1099 375 q 932 110 1011 181 l 1175 -129 l 1175 -140 l 925 -140 l 763 14 z "},"π":{"ha":1153,"x_min":74,"x_max":1079,"o":"m 601 489 q 681 513 651 489 q 710 578 710 538 l 710 581 q 681 646 710 624 q 601 668 651 668 l 500 668 l 500 489 l 601 489 m 397 760 l 610 760 q 759 712 704 760 q 814 582 814 664 l 814 579 q 797 501 814 535 q 750 444 779 467 q 681 410 721 421 q 599 399 642 399 l 500 399 l 500 232 l 397 232 l 397 760 m 575 33 q 753 69 671 33 q 897 167 836 106 q 992 310 957 228 q 1026 486 1026 393 l 1026 489 q 992 664 1026 582 q 898 807 958 746 q 756 903 838 868 q 578 939 674 939 q 399 903 482 939 q 256 806 317 867 q 161 662 196 744 q 126 486 126 579 l 126 483 q 160 308 126 390 q 255 165 194 226 q 397 69 315 104 q 575 33 479 33 m 575 -17 q 378 23 469 -17 q 219 131 286 63 q 113 290 151 199 q 74 483 74 381 l 74 486 q 113 680 74 589 q 219 840 151 771 q 380 949 288 908 q 578 989 472 989 q 775 949 683 989 q 934 842 867 910 q 1040 683 1001 774 q 1079 489 1079 592 l 1079 486 q 1040 292 1079 383 q 933 133 1001 201 q 773 24 865 64 q 575 -17 681 -17 z "},"ª":{"ha":542,"x_min":74,"x_max":449,"o":"m 246 631 q 320 654 290 631 q 350 714 350 678 l 350 739 q 311 750 332 746 q 263 754 290 754 q 197 738 221 754 q 174 692 174 721 l 174 689 q 194 646 174 661 q 246 631 214 631 m 74 472 l 449 472 l 449 392 l 74 392 l 74 472 m 221 560 q 166 568 192 560 q 121 592 140 576 q 90 631 101 607 q 78 685 78 654 l 78 688 q 124 785 78 753 q 244 817 171 817 q 302 813 278 817 q 350 801 326 808 l 350 808 q 253 893 350 893 q 194 885 221 893 q 138 867 167 878 l 111 942 q 182 967 147 958 q 265 976 217 976 q 400 931 356 976 q 433 878 422 910 q 443 807 443 846 l 443 568 l 349 568 l 349 615 q 296 575 326 590 q 221 560 265 560 z "},"º":{"ha":542,"x_min":61,"x_max":481,"o":"m 272 644 q 353 681 324 644 q 383 767 383 717 l 383 769 q 351 856 383 819 q 269 893 319 893 q 188 857 218 893 q 158 771 158 821 l 158 768 q 190 681 158 718 q 272 644 222 644 m 71 472 l 471 472 l 471 392 l 71 392 l 71 472 m 269 558 q 187 575 225 558 q 121 619 149 592 q 77 685 93 647 q 61 767 61 724 l 61 769 q 77 851 61 813 q 122 917 93 889 q 188 963 150 946 q 272 979 226 979 q 355 963 317 979 q 421 918 393 946 q 465 852 449 890 q 481 771 481 814 l 481 768 q 465 687 481 725 q 420 620 449 649 q 353 575 392 592 q 269 558 315 558 z "},"Ω":{"ha":1044,"x_min":50,"x_max":1026,"o":"m 143 589 l 50 589 l 50 729 l 143 729 l 143 782 q 203 964 143 904 q 368 1022 261 1022 q 444 1017 413 1022 q 504 1003 476 1011 l 504 861 q 456 874 479 869 q 406 879 433 879 q 308 768 308 879 l 308 728 l 503 728 l 503 589 l 311 589 l 311 0 l 143 0 l 143 589 m 665 589 l 572 589 l 572 729 l 665 729 l 665 782 q 725 964 665 904 q 889 1022 783 1022 q 966 1017 933 1022 q 1026 1003 999 1011 l 1026 861 q 978 874 1001 869 q 928 879 956 879 q 831 768 831 879 l 831 728 l 1025 728 l 1025 589 l 833 589 l 833 0 l 665 0 l 665 589 z "},"æ":{"ha":1322,"x_min":56,"x_max":1257,"o":"m 361 111 q 476 136 422 111 q 578 206 529 161 q 561 256 568 229 q 551 311 554 282 q 479 329 519 322 q 388 336 439 336 q 266 306 310 336 q 222 222 222 275 l 222 219 q 263 139 222 167 q 361 111 303 111 m 1092 418 q 1074 494 1088 458 q 1036 555 1060 529 q 980 596 1013 581 q 906 611 947 611 q 776 558 826 611 q 714 418 725 504 l 1092 418 m 333 -15 q 226 -1 276 -15 q 138 42 175 14 q 78 113 100 71 q 56 211 56 156 l 56 214 q 78 320 56 275 q 140 395 100 365 q 233 440 179 425 q 350 454 288 454 q 464 446 419 454 q 551 424 508 438 l 551 438 q 372 594 551 594 q 264 582 313 594 q 165 549 215 569 l 119 683 q 244 728 181 711 q 396 744 308 744 q 553 713 486 744 q 653 624 619 682 q 763 715 697 682 q 910 749 828 749 q 1060 717 996 749 q 1169 631 1125 685 q 1235 505 1213 576 q 1257 354 1257 433 q 1257 331 1257 343 q 1256 307 1257 319 l 717 307 q 789 169 732 217 q 926 121 846 121 q 1035 143 989 121 q 1126 208 1082 165 l 1225 121 q 1099 21 1172 58 q 924 -17 1026 -17 q 764 17 838 -17 q 640 108 690 50 q 502 21 578 57 q 333 -15 426 -15 z "},"ø":{"ha":913,"x_min":44,"x_max":868,"o":"m 457 126 q 551 145 508 126 q 622 197 593 164 q 667 272 651 229 q 683 363 683 314 l 683 365 q 674 433 683 401 q 649 493 664 465 l 344 158 q 457 126 393 126 m 567 572 q 515 597 543 588 q 454 606 486 606 q 361 587 403 606 q 290 535 319 568 q 245 460 261 503 q 229 368 229 417 l 229 365 q 264 239 229 296 l 567 572 m 454 -17 q 342 -1 396 -17 q 244 43 289 15 l 197 -7 l 44 -7 l 156 117 q 89 229 113 167 q 65 363 65 292 l 65 365 q 95 514 65 444 q 177 635 125 583 q 301 718 229 688 q 457 749 372 749 q 569 733 517 749 q 667 689 622 717 l 715 742 l 868 742 q 828 696 847 718 q 790 655 810 676 q 756 615 771 633 q 824 503 800 567 q 847 368 847 440 l 847 365 q 817 218 847 288 q 735 97 788 149 q 611 14 683 44 q 454 -17 539 -17 z "},"¿":{"ha":751,"x_min":58,"x_max":718,"o":"m 383 -12 q 250 7 310 -12 q 148 63 190 26 q 82 152 106 100 q 58 269 58 204 l 58 272 q 81 386 58 338 q 140 468 103 435 q 228 522 178 501 q 338 553 279 543 l 351 665 l 464 665 l 492 440 l 485 433 q 290 388 351 428 q 228 278 228 347 l 228 275 q 270 180 228 217 q 388 143 313 143 q 509 172 454 143 q 614 253 564 200 l 718 142 q 576 30 657 72 q 383 -12 496 -12 m 318 972 l 504 972 l 504 782 l 318 782 l 318 972 z "},"¡":{"ha":419,"x_min":111,"x_max":308,"o":"m 111 49 l 164 665 l 257 665 l 308 49 l 308 0 l 111 0 l 111 49 m 118 972 l 303 972 l 303 782 l 118 782 l 118 972 z "},"√":{"ha":1442,"x_min":50,"x_max":1328,"o":"m 1158 1014 l 1328 1014 l 1328 0 l 1158 0 l 1158 1014 m 143 589 l 50 589 l 50 729 l 143 729 l 143 782 q 203 964 143 904 q 368 1022 261 1022 q 444 1017 413 1022 q 504 1003 476 1011 l 504 861 q 456 874 479 869 q 406 879 433 879 q 308 768 308 879 l 308 728 l 503 728 l 503 589 l 311 589 l 311 0 l 143 0 l 143 589 m 665 589 l 572 589 l 572 729 l 665 729 l 665 782 q 725 964 665 904 q 889 1022 783 1022 q 966 1017 933 1022 q 1026 1003 999 1011 l 1026 861 q 978 874 1001 869 q 928 879 956 879 q 831 768 831 879 l 831 728 l 1025 728 l 1025 589 l 833 589 l 833 0 l 665 0 l 665 589 z "},"ƒ":{"ha":732,"x_min":57,"x_max":682,"o":"m 135 -7 q 92 -6 110 -7 q 57 0 74 -4 l 57 138 q 113 133 86 133 q 181 155 157 133 q 214 226 206 176 l 263 494 l 151 494 l 151 635 l 286 635 l 311 764 q 386 924 331 869 q 554 979 442 979 q 625 975 594 979 q 682 964 656 971 l 682 822 q 633 833 657 829 q 586 836 608 836 q 511 811 538 836 q 474 729 485 786 l 457 635 l 633 635 l 633 494 l 432 494 l 379 201 q 301 41 360 89 q 135 -7 243 -7 z "},"≈":{"ha":1442,"x_min":50,"x_max":1333,"o":"m 1158 733 l 1328 733 l 1328 0 l 1158 0 l 1158 733 m 143 589 l 50 589 l 50 729 l 143 729 l 143 782 q 203 964 143 904 q 368 1022 261 1022 q 444 1017 413 1022 q 504 1003 476 1011 l 504 861 q 456 874 479 869 q 406 879 433 879 q 308 768 308 879 l 308 728 l 503 728 l 503 589 l 311 589 l 311 0 l 143 0 l 143 589 m 665 589 l 572 589 l 572 729 l 665 729 l 665 782 q 725 964 665 904 q 889 1022 783 1022 q 966 1017 933 1022 q 1026 1003 999 1011 l 1026 861 q 978 874 1001 869 q 928 879 956 879 q 831 768 831 879 l 831 728 l 1025 728 l 1025 589 l 833 589 l 833 0 l 665 0 l 665 589 m 1153 1006 l 1333 1006 l 1333 846 l 1153 846 l 1153 1006 z "},"«":{"ha":842,"x_min":61,"x_max":768,"o":"m 61 361 l 61 372 l 292 678 l 419 613 l 236 368 l 419 122 l 292 57 l 61 361 m 411 361 l 411 372 l 640 678 l 768 613 l 585 368 l 768 122 l 640 57 l 411 361 z "},"»":{"ha":842,"x_min":74,"x_max":781,"o":"m 74 121 l 257 365 l 74 611 l 201 678 l 431 372 l 431 361 l 201 57 l 74 121 m 422 121 l 606 365 l 422 611 l 550 678 l 781 372 l 781 361 l 550 57 l 422 121 z "},"…":{"ha":1100,"x_min":94,"x_max":1006,"o":"m 94 186 l 275 186 l 275 0 l 94 0 l 94 186 m 460 186 l 640 186 l 640 0 l 460 0 l 460 186 m 825 186 l 1006 186 l 1006 0 l 825 0 l 825 186 z "}," ":{"ha":417,"x_min":0,"x_max":0,"o":""},"À":{"ha":1097,"x_min":42,"x_max":1056,"o":"m 318 1213 l 471 1281 l 618 1053 l 488 1053 l 318 1213 m 714 386 l 546 775 l 379 386 l 714 386 m 469 979 l 628 979 l 1056 0 l 875 0 l 776 235 l 317 235 l 217 0 l 42 0 l 469 979 z "},"Ã":{"ha":1097,"x_min":42,"x_max":1056,"o":"m 286 1067 q 344 1196 310 1151 q 442 1240 378 1240 q 499 1231 471 1240 q 552 1212 526 1222 q 600 1193 578 1201 q 642 1185 622 1185 q 688 1201 672 1185 q 718 1254 703 1218 l 811 1225 q 753 1097 788 1142 q 656 1053 719 1053 q 599 1061 626 1053 q 545 1080 571 1069 q 497 1099 519 1090 q 456 1108 474 1108 q 410 1092 425 1108 q 379 1039 394 1075 l 286 1067 m 714 386 l 546 775 l 379 386 l 714 386 m 469 979 l 628 979 l 1056 0 l 875 0 l 776 235 l 317 235 l 217 0 l 42 0 l 469 979 z "},"Õ":{"ha":1181,"x_min":82,"x_max":1099,"o":"m 328 1067 q 385 1196 351 1151 q 483 1240 419 1240 q 540 1231 513 1240 q 594 1212 568 1222 q 642 1193 619 1201 q 683 1185 664 1185 q 729 1201 714 1185 q 760 1254 744 1218 l 853 1225 q 795 1097 829 1142 q 697 1053 761 1053 q 640 1061 668 1053 q 587 1080 613 1069 q 538 1099 561 1090 q 497 1108 515 1108 q 451 1092 467 1108 q 421 1039 436 1075 l 328 1067 m 592 140 q 724 167 664 140 q 828 241 785 194 q 895 350 871 288 q 919 483 919 413 l 919 486 q 895 620 919 557 q 827 730 871 683 q 722 804 783 776 q 589 832 661 832 q 456 805 517 832 q 353 731 396 778 q 285 622 310 685 q 261 489 261 560 l 261 486 q 285 352 261 415 q 353 242 310 289 q 458 168 397 196 q 592 140 519 140 m 589 -17 q 383 23 476 -17 q 224 131 290 63 q 119 290 157 199 q 82 483 82 381 l 82 486 q 119 680 82 589 q 225 840 157 771 q 386 949 293 908 q 592 989 479 989 q 797 949 704 989 q 957 842 890 910 q 1061 683 1024 774 q 1099 489 1099 592 l 1099 486 q 1061 292 1099 383 q 956 133 1024 201 q 794 24 888 64 q 589 -17 701 -17 z "},"Œ":{"ha":1525,"x_min":82,"x_max":1447,"o":"m 750 156 l 750 817 l 599 817 q 460 792 522 817 q 353 724 397 768 q 285 620 310 681 q 261 489 261 560 l 261 486 q 285 354 261 415 q 353 249 310 293 q 460 181 397 206 q 599 156 522 156 l 750 156 m 599 0 q 389 37 483 0 q 226 139 294 74 q 119 292 157 204 q 82 483 82 381 l 82 486 q 119 678 82 589 q 226 832 157 767 q 389 935 294 897 q 599 972 483 972 l 1440 972 l 1440 819 l 921 819 l 921 567 l 1378 567 l 1378 414 l 921 414 l 921 153 l 1447 153 l 1447 0 l 599 0 z "},"œ":{"ha":1444,"x_min":65,"x_max":1379,"o":"m 453 129 q 542 148 503 129 q 610 199 582 167 q 654 273 639 231 q 669 363 669 315 l 669 365 q 653 457 669 414 q 607 532 636 500 q 538 583 578 564 q 450 601 497 601 q 360 583 400 601 q 292 532 321 564 q 249 458 264 500 q 233 368 233 415 l 233 365 q 249 274 233 317 q 294 199 265 232 q 364 148 324 167 q 453 129 404 129 m 1214 418 q 1195 494 1210 458 q 1158 555 1181 529 q 1102 596 1135 581 q 1028 611 1069 611 q 898 558 949 611 q 836 418 847 504 l 1214 418 m 446 -17 q 297 13 367 -17 q 176 94 228 43 q 95 215 125 146 q 65 363 65 285 l 65 365 q 95 514 65 444 q 177 635 125 583 q 300 718 229 688 q 453 749 371 749 q 623 707 547 749 q 746 597 699 665 q 865 708 792 667 q 1029 749 938 749 q 1182 717 1117 749 q 1291 631 1247 685 q 1357 505 1335 576 q 1379 354 1379 433 q 1378 331 1379 343 q 1376 307 1378 319 l 838 307 q 910 169 853 217 q 1049 121 968 121 q 1158 143 1111 121 q 1249 208 1204 165 l 1347 121 q 1221 21 1294 58 q 1047 -17 1147 -17 q 872 24 951 -17 q 744 138 793 65 q 619 25 696 67 q 446 -17 542 -17 z "},"–":{"ha":733,"x_min":78,"x_max":656,"o":"m 78 506 l 656 506 l 656 346 l 78 346 l 78 506 z "},"—":{"ha":1247,"x_min":78,"x_max":1169,"o":"m 78 506 l 1169 506 l 1169 346 l 78 346 l 78 506 z "},"“":{"ha":696,"x_min":88,"x_max":642,"o":"m 88 749 q 142 918 88 865 q 301 979 196 971 l 319 907 q 201 778 192 883 l 272 778 l 272 586 l 88 586 l 88 749 m 410 749 q 464 918 410 865 q 624 979 518 971 l 642 907 q 522 778 514 883 l 594 778 l 594 586 l 410 586 l 410 749 z "},"”":{"ha":696,"x_min":54,"x_max":608,"o":"m 54 651 q 172 782 182 675 l 101 782 l 101 972 l 286 972 l 286 810 q 232 640 286 693 q 72 579 178 588 l 54 651 m 376 651 q 494 782 504 675 l 424 782 l 424 972 l 608 972 l 608 810 q 554 640 608 693 q 394 579 500 588 l 376 651 z "},"‘":{"ha":374,"x_min":88,"x_max":319,"o":"m 88 749 q 142 918 88 865 q 301 979 196 971 l 319 907 q 201 778 192 883 l 272 778 l 272 586 l 88 586 l 88 749 z "},"’":{"ha":374,"x_min":54,"x_max":286,"o":"m 54 651 q 172 782 182 675 l 101 782 l 101 972 l 286 972 l 286 810 q 232 640 286 693 q 72 579 178 588 l 54 651 z "},"ÿ":{"ha":828,"x_min":36,"x_max":789,"o":"m 190 990 l 361 990 l 361 826 l 190 826 l 190 990 m 467 990 l 638 990 l 638 826 l 467 826 l 467 990 m 256 -226 q 162 -215 203 -226 q 82 -182 121 -203 l 139 -57 q 187 -77 163 -69 q 238 -85 211 -85 q 297 -67 274 -85 q 342 0 321 -49 l 36 733 l 215 733 l 424 189 l 614 733 l 789 733 l 497 -21 q 451 -117 475 -78 q 399 -180 428 -156 q 335 -215 369 -204 q 256 -226 300 -226 z "},"Ÿ":{"ha":994,"x_min":25,"x_max":969,"o":"m 274 1215 l 444 1215 l 444 1051 l 274 1051 l 274 1215 m 550 1215 l 721 1215 l 721 1051 l 550 1051 l 550 1215 m 411 383 l 25 972 l 226 972 l 499 542 l 774 972 l 969 972 l 583 388 l 583 0 l 411 0 l 411 383 z "},"⁄":{"ha":638,"x_min":-97,"x_max":704,"o":"m 551 1053 l 704 1053 l 56 -136 l -97 -136 l 551 1053 z "},"¤":{"ha":1000,"x_min":72,"x_max":939,"o":"m 603 -17 q 460 7 525 -17 q 343 74 394 31 q 255 178 292 118 q 199 313 218 239 l 72 313 l 72 431 l 179 431 q 178 457 178 444 q 178 483 178 469 l 178 486 q 178 517 178 501 q 181 549 178 533 l 72 549 l 72 667 l 203 667 q 260 797 224 738 q 347 898 297 856 q 460 965 397 940 q 597 989 524 989 q 712 975 661 989 q 803 937 763 961 q 876 878 843 913 q 936 806 908 844 l 807 710 q 714 803 763 771 q 593 836 665 836 q 463 791 518 836 q 379 667 408 746 l 678 667 l 678 549 l 353 549 q 351 519 351 535 q 350 489 350 504 l 350 486 q 351 458 350 471 q 353 431 351 444 l 678 431 l 678 313 l 378 313 q 464 183 406 231 q 604 136 522 136 q 667 145 639 136 q 721 171 696 154 q 769 212 746 188 q 817 268 793 236 l 939 179 q 876 100 910 136 q 801 38 842 64 q 711 -2 760 13 q 603 -17 663 -17 z "},"‹":{"ha":492,"x_min":61,"x_max":419,"o":"m 61 361 l 61 372 l 292 678 l 419 613 l 236 368 l 419 122 l 292 57 l 61 361 z "},"›":{"ha":492,"x_min":74,"x_max":431,"o":"m 74 121 l 257 365 l 74 611 l 201 678 l 431 372 l 431 361 l 201 57 l 74 121 z "},"ﬁ":{"ha":919,"x_min":50,"x_max":811,"o":"m 638 733 l 806 733 l 806 0 l 638 0 l 638 733 m 143 589 l 50 589 l 50 729 l 143 729 l 143 782 q 203 964 143 904 q 368 1022 261 1022 q 444 1017 413 1022 q 504 1003 476 1011 l 504 861 q 456 874 479 869 q 406 879 433 879 q 308 768 308 879 l 308 728 l 503 728 l 503 589 l 311 589 l 311 0 l 143 0 l 143 589 m 631 1006 l 811 1006 l 811 846 l 631 846 l 631 1006 z "},"ﬂ":{"ha":919,"x_min":50,"x_max":806,"o":"m 638 1014 l 806 1014 l 806 0 l 638 0 l 638 1014 m 143 589 l 50 589 l 50 729 l 143 729 l 143 782 q 203 964 143 904 q 368 1022 261 1022 q 444 1017 413 1022 q 504 1003 476 1011 l 504 861 q 456 874 479 869 q 406 879 433 879 q 308 768 308 879 l 308 728 l 503 728 l 503 589 l 311 589 l 311 0 l 143 0 l 143 589 z "},"‡":{"ha":597,"x_min":92,"x_max":506,"o":"m 260 186 l 92 174 l 92 272 l 260 260 l 249 486 l 260 713 l 92 700 l 92 799 l 260 786 l 243 972 l 354 972 l 338 786 l 506 799 l 506 700 l 338 713 l 349 486 l 338 260 l 506 272 l 506 174 l 338 186 l 354 0 l 243 0 l 260 186 z "},"·":{"ha":374,"x_min":94,"x_max":279,"o":"m 94 521 l 279 521 l 279 331 l 94 331 l 94 521 z "},"‚":{"ha":374,"x_min":47,"x_max":279,"o":"m 47 -131 q 165 0 175 -106 l 94 0 l 94 190 l 279 190 l 279 29 q 225 -140 279 -87 q 65 -201 171 -193 l 47 -131 z "},"„":{"ha":696,"x_min":47,"x_max":601,"o":"m 47 -131 q 165 0 175 -106 l 94 0 l 94 190 l 279 190 l 279 29 q 225 -140 279 -87 q 65 -201 171 -193 l 47 -131 m 369 -131 q 488 0 497 -106 l 417 0 l 417 190 l 601 190 l 601 29 q 547 -140 601 -87 q 388 -201 493 -193 l 369 -131 z "},"‰":{"ha":1706,"x_min":67,"x_max":1639,"o":"m 885 96 q 961 137 933 96 q 989 235 989 178 l 989 238 q 959 338 989 296 q 882 379 929 379 q 806 338 833 379 q 778 240 778 297 l 778 238 q 808 137 778 178 q 885 96 838 96 m 1411 96 q 1488 137 1460 96 q 1515 235 1515 178 l 1515 238 q 1485 338 1515 296 q 1408 379 1456 379 q 1332 338 1360 379 q 1304 240 1304 297 l 1304 238 q 1334 137 1304 178 q 1411 96 1364 96 m 297 593 q 374 634 346 593 q 401 732 401 675 l 401 735 q 372 835 401 793 q 294 876 342 876 q 218 835 246 876 q 190 738 190 794 l 190 735 q 220 634 190 675 q 297 593 250 593 m 882 -11 q 789 8 831 -11 q 717 62 747 28 q 671 140 688 96 q 654 235 654 185 l 654 238 q 671 333 654 288 q 718 412 688 378 q 791 466 749 446 q 885 486 833 486 q 978 467 936 486 q 1049 413 1019 447 q 1096 335 1079 379 q 1113 240 1113 290 l 1113 238 q 1096 142 1113 188 q 1049 63 1079 97 q 976 9 1018 29 q 882 -11 933 -11 m 1408 -11 q 1315 8 1357 -11 q 1242 62 1272 28 q 1197 140 1213 96 q 1181 235 1181 185 l 1181 238 q 1197 333 1181 288 q 1244 412 1214 378 q 1316 466 1274 446 q 1411 486 1358 486 q 1504 467 1463 486 q 1576 413 1546 447 q 1622 335 1606 379 q 1639 240 1639 290 l 1639 238 q 1622 142 1639 188 q 1575 63 1606 97 q 1502 9 1544 29 q 1408 -11 1460 -11 m 876 972 l 1014 972 l 303 0 l 165 0 l 876 972 m 294 486 q 201 506 243 486 q 130 559 160 525 q 83 638 100 593 q 67 732 67 682 l 67 735 q 83 830 67 785 q 131 909 100 875 q 203 963 161 943 q 297 983 246 983 q 390 964 349 983 q 462 910 432 944 q 508 832 492 876 q 525 738 525 788 l 525 735 q 508 640 525 685 q 461 560 492 594 q 388 506 431 526 q 294 486 346 486 z "},"Â":{"ha":1097,"x_min":42,"x_max":1056,"o":"m 471 1254 l 626 1254 l 788 1051 l 654 1051 l 547 1144 l 440 1051 l 310 1051 l 471 1254 m 714 386 l 546 775 l 379 386 l 714 386 m 469 979 l 628 979 l 1056 0 l 875 0 l 776 235 l 317 235 l 217 0 l 42 0 l 469 979 z "},"Ê":{"ha":931,"x_min":125,"x_max":853,"o":"m 404 1256 l 560 1256 l 721 1053 l 588 1053 l 481 1146 l 374 1053 l 243 1053 l 404 1256 m 125 972 l 846 972 l 846 819 l 296 819 l 296 567 l 783 567 l 783 414 l 296 414 l 296 153 l 853 153 l 853 0 l 125 0 l 125 972 z "},"Á":{"ha":1097,"x_min":42,"x_max":1056,"o":"m 626 1281 l 779 1213 l 610 1053 l 479 1053 l 626 1281 m 714 386 l 546 775 l 379 386 l 714 386 m 469 979 l 628 979 l 1056 0 l 875 0 l 776 235 l 317 235 l 217 0 l 42 0 l 469 979 z "},"Ë":{"ha":931,"x_min":125,"x_max":853,"o":"m 258 1217 l 429 1217 l 429 1053 l 258 1053 l 258 1217 m 535 1217 l 706 1217 l 706 1053 l 535 1053 l 535 1217 m 125 972 l 846 972 l 846 819 l 296 819 l 296 567 l 783 567 l 783 414 l 296 414 l 296 153 l 853 153 l 853 0 l 125 0 l 125 972 z "},"È":{"ha":931,"x_min":125,"x_max":853,"o":"m 285 1213 l 438 1281 l 585 1053 l 454 1053 l 285 1213 m 125 972 l 846 972 l 846 819 l 296 819 l 296 567 l 783 567 l 783 414 l 296 414 l 296 153 l 853 153 l 853 0 l 125 0 l 125 972 z "},"Í":{"ha":440,"x_min":135,"x_max":450,"o":"m 297 1281 l 450 1213 l 281 1053 l 150 1053 l 297 1281 m 135 972 l 306 972 l 306 0 l 135 0 l 135 972 z "},"Î":{"ha":440,"x_min":-18,"x_max":460,"o":"m 143 1256 l 299 1256 l 460 1053 l 326 1053 l 219 1146 l 113 1053 l -18 1053 l 143 1256 m 135 972 l 306 972 l 306 0 l 135 0 l 135 972 z "},"Ï":{"ha":440,"x_min":-3,"x_max":444,"o":"m -3 1217 l 168 1217 l 168 1053 l -3 1053 l -3 1217 m 274 1217 l 444 1217 l 444 1053 l 274 1053 l 274 1217 m 135 972 l 306 972 l 306 0 l 135 0 l 135 972 z "},"Ì":{"ha":440,"x_min":-8,"x_max":306,"o":"m -8 1213 l 144 1281 l 292 1053 l 161 1053 l -8 1213 m 135 972 l 306 972 l 306 0 l 135 0 l 135 972 z "},"Ó":{"ha":1181,"x_min":82,"x_max":1099,"o":"m 678 1281 l 831 1213 l 661 1053 l 531 1053 l 678 1281 m 592 140 q 724 167 664 140 q 828 241 785 194 q 895 350 871 288 q 919 483 919 413 l 919 486 q 895 620 919 557 q 827 730 871 683 q 722 804 783 776 q 589 832 661 832 q 456 805 517 832 q 353 731 396 778 q 285 622 310 685 q 261 489 261 560 l 261 486 q 285 352 261 415 q 353 242 310 289 q 458 168 397 196 q 592 140 519 140 m 589 -17 q 383 23 476 -17 q 224 131 290 63 q 119 290 157 199 q 82 483 82 381 l 82 486 q 119 680 82 589 q 225 840 157 771 q 386 949 293 908 q 592 989 479 989 q 797 949 704 989 q 957 842 890 910 q 1061 683 1024 774 q 1099 489 1099 592 l 1099 486 q 1061 292 1099 383 q 956 133 1024 201 q 794 24 888 64 q 589 -17 701 -17 z "},"Ô":{"ha":1181,"x_min":82,"x_max":1099,"o":"m 513 1256 l 668 1256 l 829 1053 l 696 1053 l 589 1146 l 482 1053 l 351 1053 l 513 1256 m 592 140 q 724 167 664 140 q 828 241 785 194 q 895 350 871 288 q 919 483 919 413 l 919 486 q 895 620 919 557 q 827 730 871 683 q 722 804 783 776 q 589 832 661 832 q 456 805 517 832 q 353 731 396 778 q 285 622 310 685 q 261 489 261 560 l 261 486 q 285 352 261 415 q 353 242 310 289 q 458 168 397 196 q 592 140 519 140 m 589 -17 q 383 23 476 -17 q 224 131 290 63 q 119 290 157 199 q 82 483 82 381 l 82 486 q 119 680 82 589 q 225 840 157 771 q 386 949 293 908 q 592 989 479 989 q 797 949 704 989 q 957 842 890 910 q 1061 683 1024 774 q 1099 489 1099 592 l 1099 486 q 1061 292 1099 383 q 956 133 1024 201 q 794 24 888 64 q 589 -17 701 -17 z "},"Ò":{"ha":1181,"x_min":82,"x_max":1099,"o":"m 350 1213 l 503 1281 l 650 1053 l 519 1053 l 350 1213 m 592 140 q 724 167 664 140 q 828 241 785 194 q 895 350 871 288 q 919 483 919 413 l 919 486 q 895 620 919 557 q 827 730 871 683 q 722 804 783 776 q 589 832 661 832 q 456 805 517 832 q 353 731 396 778 q 285 622 310 685 q 261 489 261 560 l 261 486 q 285 352 261 415 q 353 242 310 289 q 458 168 397 196 q 592 140 519 140 m 589 -17 q 383 23 476 -17 q 224 131 290 63 q 119 290 157 199 q 82 483 82 381 l 82 486 q 119 680 82 589 q 225 840 157 771 q 386 949 293 908 q 592 989 479 989 q 797 949 704 989 q 957 842 890 910 q 1061 683 1024 774 q 1099 489 1099 592 l 1099 486 q 1061 292 1099 383 q 956 133 1024 201 q 794 24 888 64 q 589 -17 701 -17 z "},"Ú":{"ha":1051,"x_min":110,"x_max":942,"o":"m 594 1274 l 747 1206 l 578 1046 l 447 1046 l 594 1274 m 524 -15 q 353 12 429 -15 q 222 93 276 39 q 139 227 168 147 q 110 413 110 307 l 110 972 l 281 972 l 281 419 q 346 213 281 283 q 526 142 411 142 q 706 210 640 142 q 771 413 771 278 l 771 972 l 942 972 l 942 421 q 912 231 942 313 q 828 94 882 149 q 697 12 774 39 q 524 -15 619 -15 z "},"Û":{"ha":1051,"x_min":110,"x_max":942,"o":"m 449 1254 l 604 1254 l 765 1051 l 632 1051 l 525 1144 l 418 1051 l 288 1051 l 449 1254 m 524 -15 q 353 12 429 -15 q 222 93 276 39 q 139 227 168 147 q 110 413 110 307 l 110 972 l 281 972 l 281 419 q 346 213 281 283 q 526 142 411 142 q 706 210 640 142 q 771 413 771 278 l 771 972 l 942 972 l 942 421 q 912 231 942 313 q 828 94 882 149 q 697 12 774 39 q 524 -15 619 -15 z "},"Ù":{"ha":1051,"x_min":110,"x_max":942,"o":"m 304 1206 l 457 1274 l 604 1046 l 474 1046 l 304 1206 m 524 -15 q 353 12 429 -15 q 222 93 276 39 q 139 227 168 147 q 110 413 110 307 l 110 972 l 281 972 l 281 419 q 346 213 281 283 q 526 142 411 142 q 706 210 640 142 q 771 413 771 278 l 771 972 l 942 972 l 942 421 q 912 231 942 313 q 828 94 882 149 q 697 12 774 39 q 524 -15 619 -15 z "},"ı":{"ha":397,"x_min":115,"x_max":283,"o":"m 115 733 l 283 733 l 283 0 l 115 0 l 115 733 z "},"ˆ":{"ha":694,"x_min":108,"x_max":586,"o":"m 269 1029 l 425 1029 l 586 826 l 453 826 l 346 919 l 239 826 l 108 826 l 269 1029 z "},"˜":{"ha":694,"x_min":85,"x_max":610,"o":"m 85 840 q 142 969 108 925 q 240 1014 176 1014 q 297 1005 269 1014 q 351 985 325 996 q 399 967 376 975 q 440 958 421 958 q 486 975 471 958 q 517 1028 501 992 l 610 999 q 552 871 586 915 q 454 826 518 826 q 397 835 425 826 q 344 853 369 843 q 295 873 318 864 q 254 882 272 882 q 208 865 224 882 q 178 813 193 849 l 85 840 z "},"¯":{"ha":694,"x_min":110,"x_max":585,"o":"m 110 957 l 585 957 l 585 833 l 110 833 l 110 957 z "},"˘":{"ha":694,"x_min":110,"x_max":585,"o":"m 347 824 q 182 877 247 824 q 110 1029 117 931 l 225 1029 q 266 965 238 989 q 347 942 294 942 q 428 965 400 942 q 469 1029 457 989 l 585 1029 q 513 877 578 931 q 347 824 447 824 z "},"˙":{"ha":694,"x_min":260,"x_max":435,"o":"m 260 992 l 435 992 l 435 826 l 260 826 l 260 992 z "},"˚":{"ha":694,"x_min":189,"x_max":506,"o":"m 347 890 q 408 915 383 890 q 433 975 433 940 l 433 978 q 408 1038 433 1013 q 347 1063 383 1063 q 286 1038 311 1063 q 261 978 261 1013 l 261 975 q 286 915 261 940 q 347 890 311 890 m 347 824 q 287 835 315 824 q 237 868 258 847 q 202 917 215 889 q 189 975 189 944 l 189 978 q 202 1036 189 1008 q 237 1085 215 1064 q 287 1117 258 1106 q 347 1129 315 1129 q 407 1117 378 1129 q 458 1085 436 1106 q 492 1036 479 1064 q 506 978 506 1008 l 506 975 q 492 917 506 944 q 458 868 479 889 q 407 835 436 847 q 347 824 378 824 z "},"¸":{"ha":694,"x_min":182,"x_max":433,"o":"m 182 -168 l 307 14 l 433 14 l 329 -229 l 182 -168 z "},"˝":{"ha":694,"x_min":78,"x_max":625,"o":"m 222 1054 l 369 986 l 203 826 l 78 826 l 222 1054 m 478 1054 l 625 986 l 456 826 l 331 826 l 478 1054 z "},"˛":{"ha":694,"x_min":244,"x_max":508,"o":"m 508 -228 q 312 -196 379 -236 q 244 -78 244 -156 q 251 -30 244 -54 q 265 14 257 -6 l 385 14 q 376 -47 376 -18 q 407 -120 376 -94 q 508 -150 438 -146 l 508 -228 z "},"ˇ":{"ha":694,"x_min":108,"x_max":586,"o":"m 108 1029 l 242 1029 l 349 938 l 456 1029 l 586 1029 l 425 826 l 269 826 l 108 1029 z "},"Ł":{"ha":901,"x_min":63,"x_max":849,"o":"m 167 386 l 63 356 l 63 514 l 167 546 l 167 972 l 336 972 l 336 597 l 617 681 l 617 522 l 336 438 l 336 156 l 849 156 l 849 0 l 167 0 l 167 386 z "},"ł":{"ha":481,"x_min":51,"x_max":429,"o":"m 157 413 l 51 381 l 51 540 l 157 572 l 157 1014 l 324 1014 l 324 621 l 429 653 l 429 493 l 324 461 l 324 0 l 157 0 l 157 413 z "},"Š":{"ha":889,"x_min":60,"x_max":813,"o":"m 206 1256 l 339 1256 l 446 1164 l 553 1256 l 683 1256 l 522 1053 l 367 1053 l 206 1256 m 465 -14 q 250 24 353 -14 q 60 142 147 63 l 163 264 q 306 170 233 203 q 469 138 378 138 q 595 171 549 138 q 642 260 642 204 l 642 263 q 633 309 642 289 q 599 347 624 329 q 533 381 575 365 q 422 411 490 396 q 284 452 344 429 q 183 508 224 475 q 120 588 142 540 q 99 701 99 635 l 99 704 q 124 819 99 767 q 192 908 149 871 q 297 965 236 944 q 431 986 358 986 q 623 955 538 986 q 783 864 708 924 l 692 735 q 560 809 625 783 q 428 835 494 835 q 311 801 353 835 q 269 719 269 768 l 269 717 q 279 667 269 689 q 315 628 289 646 q 385 596 340 611 q 500 564 431 581 q 635 521 576 544 q 733 463 694 497 q 792 384 772 429 q 813 279 813 339 l 813 276 q 787 154 813 208 q 715 63 761 100 q 606 6 669 25 q 465 -14 542 -14 z "},"š":{"ha":694,"x_min":46,"x_max":629,"o":"m 114 1029 l 247 1029 l 354 938 l 461 1029 l 592 1029 l 431 826 l 275 826 l 114 1029 m 357 -14 q 197 14 278 -14 q 46 96 115 42 l 121 210 q 242 142 181 165 q 361 119 304 119 q 445 141 415 119 q 475 199 475 163 l 475 201 q 462 238 475 222 q 426 264 449 253 q 373 285 403 275 q 311 304 343 294 q 230 331 271 315 q 156 370 189 346 q 103 431 124 394 q 82 519 82 467 l 82 522 q 102 615 82 574 q 158 686 122 657 q 241 731 193 715 q 343 746 289 746 q 483 724 413 746 q 613 663 554 701 l 546 543 q 439 594 493 575 q 339 613 385 613 q 263 592 290 613 q 236 539 236 571 l 236 536 q 250 502 236 517 q 287 476 264 488 q 340 453 310 464 q 401 433 369 443 q 482 404 442 421 q 555 363 522 388 q 608 304 588 339 q 629 219 629 269 l 629 217 q 608 115 629 158 q 551 44 588 72 q 464 1 514 15 q 357 -14 414 -14 z "},"Ý":{"ha":994,"x_min":25,"x_max":969,"o":"m 579 1274 l 732 1206 l 563 1046 l 432 1046 l 579 1274 m 411 383 l 25 972 l 226 972 l 499 542 l 774 972 l 969 972 l 583 388 l 583 0 l 411 0 l 411 383 z "},"ý":{"ha":828,"x_min":36,"x_max":789,"o":"m 486 1053 l 639 985 l 469 825 l 339 825 l 486 1053 m 256 -226 q 162 -215 203 -226 q 82 -182 121 -203 l 139 -57 q 187 -77 163 -69 q 238 -85 211 -85 q 297 -67 274 -85 q 342 0 321 -49 l 36 733 l 215 733 l 424 189 l 614 733 l 789 733 l 497 -21 q 451 -117 475 -78 q 399 -180 428 -156 q 335 -215 369 -204 q 256 -226 300 -226 z "},"Þ":{"ha":935,"x_min":125,"x_max":878,"o":"m 494 314 q 648 363 592 314 q 704 489 704 413 l 704 492 q 647 622 704 578 q 494 665 590 665 l 296 665 l 296 314 l 494 314 m 125 972 l 296 972 l 296 819 l 508 819 q 662 797 593 819 q 778 731 731 774 q 852 628 826 688 q 878 496 878 568 l 878 493 q 847 349 878 411 q 764 244 817 286 q 640 182 711 203 q 489 161 569 161 l 296 161 l 296 0 l 125 0 l 125 972 z "},"þ":{"ha":931,"x_min":106,"x_max":864,"o":"m 483 131 q 565 147 526 131 q 631 194 603 164 q 676 267 660 224 q 693 365 693 311 l 693 368 q 676 465 693 421 q 631 539 660 508 q 565 586 603 569 q 483 603 526 603 q 401 586 440 603 q 333 538 363 569 q 287 464 304 507 q 269 368 269 421 l 269 365 q 287 269 269 313 q 333 194 304 225 q 401 147 363 164 q 483 131 440 131 m 106 1014 l 274 1014 l 274 611 q 374 709 314 669 q 522 749 433 749 q 649 724 588 749 q 758 650 710 699 q 835 531 806 601 q 864 368 864 460 l 864 365 q 835 203 864 274 q 759 83 807 132 q 649 10 711 35 q 522 -15 588 -15 q 372 24 432 -15 q 274 114 313 63 l 274 -222 l 106 -222 l 106 1014 z "},"Ž":{"ha":975,"x_min":90,"x_max":886,"o":"m 254 1256 l 388 1256 l 494 1164 l 601 1256 l 732 1256 l 571 1053 l 415 1053 l 254 1256 m 90 126 l 664 821 l 108 821 l 108 972 l 886 972 l 886 846 l 313 151 l 886 151 l 886 0 l 90 0 l 90 126 z "},"ž":{"ha":778,"x_min":72,"x_max":710,"o":"m 161 1029 l 294 1029 l 401 938 l 508 1029 l 639 1029 l 478 826 l 322 826 l 161 1029 m 72 115 l 496 596 l 88 596 l 88 733 l 710 733 l 710 618 l 286 138 l 710 138 l 710 0 l 72 0 l 72 115 z "},"ð":{"ha":892,"x_min":65,"x_max":824,"o":"m 446 126 q 533 143 494 126 q 600 189 572 160 q 643 257 628 218 q 658 340 658 296 l 658 343 q 642 424 658 386 q 598 490 626 463 q 529 535 569 518 q 440 551 489 551 q 353 535 392 551 q 288 492 315 519 q 245 426 260 464 q 231 343 231 388 l 231 340 q 247 258 231 297 q 291 190 263 219 q 359 144 319 161 q 446 126 399 126 m 439 -17 q 290 12 358 -17 q 171 89 221 40 q 93 203 121 138 q 65 344 65 269 l 65 347 q 90 480 65 419 q 158 584 115 540 q 260 651 201 628 q 388 675 319 675 q 492 660 447 675 q 581 618 536 646 l 435 817 l 269 743 l 203 831 l 371 904 l 290 1014 l 483 1014 l 517 965 l 654 1025 l 719 938 l 578 876 l 701 697 q 794 531 764 610 q 824 360 824 453 l 824 357 q 797 214 824 282 q 722 95 771 146 q 601 14 672 44 q 439 -17 529 -17 z "},"Ð":{"ha":1128,"x_min":63,"x_max":1046,"o":"m 529 156 q 668 180 606 156 q 774 248 731 204 q 842 352 818 292 q 867 483 867 413 l 867 486 q 842 618 867 557 q 774 723 818 679 q 668 792 731 767 q 529 817 606 817 l 336 817 l 336 565 l 581 565 l 581 413 l 336 413 l 336 156 l 529 156 m 167 413 l 63 413 l 63 565 l 167 565 l 167 972 l 529 972 q 738 935 643 972 q 902 833 833 899 q 1008 680 971 768 q 1046 489 1046 592 l 1046 486 q 1008 294 1046 383 q 902 140 971 206 q 738 38 833 75 q 529 0 643 0 l 167 0 l 167 413 z "}}}
